<?xml version="1.0"?>
<!-- Generated by SVGo -->
<svg width="1000" height="3935"
     xmlns="http://www.w3.org/2000/svg"
     xmlns:xlink="http://www.w3.org/1999/xlink">
<rect x="0" y="0" width="1000" height="3935" style="fill:#FFFFFF" />
<g transform="translate(20,30)" >
<g style="animation-duration:0.00s;animation-iteration-count:infinite;animation-name:k;animation-timing-function:steps(1,end);font-family:Monago,Monaco,Consolas,Menlo,'Bitstream Vera Sans Mono','Powerline Symbols',monospace;font-size:20px">
<style type="text/css">
<![CDATA[
@keyframes k {NaN%{transform:translateX(-0px)}}.bold{font-weight:bold}.italic{font-style:italic}.underline{text-decoration:underline}.dim{opacity:0.5}.a{fill:#000000}
]]>
</style>
<g transform="translate(0)">
<text x="0" y="0" class="a bold"  >usage:</text>
<text x="84" y="0" class="b bold"  >tool</text>
<text x="144" y="0" class="c"  >[options]</text>
<text x="0" y="50" class="a bold"  >NAME</text>
<text x="48" y="75" class="d"  >Preprocess</text>
<text x="180" y="75" class="d bold italic"  >C</text>
<text x="192" y="75" class="d"  >/</text>
<text x="204" y="75" class="d bold italic"  >C++</text>
<text x="252" y="75" class="d"  >files</text>
<text x="324" y="75" class="d"  >ignoring</text>
<text x="432" y="75" class="c italic"  >#include</text>
<text x="528" y="75" class="d"  >s.</text>
<text x="0" y="125" class="a bold"  >SYNOPSIS</text>
<text x="48" y="150" class="d"  >tool</text>
<text x="108" y="150" class="d"  >[</text>
<text x="120" y="150" class="e bold"  >-o</text>
<text x="156" y="150" class="d"  >|</text>
<text x="180" y="150" class="f bold"  >--out</text>
<text x="240" y="150" class="d"  >]</text>
<text x="264" y="150" class="d"  >[</text>
<text x="276" y="150" class="e bold"  >-q</text>
<text x="312" y="150" class="d"  >|</text>
<text x="336" y="150" class="f bold"  >--queue</text>
<text x="420" y="150" class="d"  >]</text>
<text x="444" y="150" class="d"  >[</text>
<text x="456" y="150" class="e bold"  >-p</text>
<text x="492" y="150" class="d"  >|</text>
<text x="516" y="150" class="f bold"  >--poll</text>
<text x="588" y="150" class="d"  >]</text>
<text x="96" y="175" class="d"  >[</text>
<text x="108" y="175" class="e bold"  >-s</text>
<text x="144" y="175" class="d"  >|</text>
<text x="168" y="175" class="f bold"  >--stage</text>
<text x="252" y="175" class="d"  >]</text>
<text x="276" y="175" class="d"  >[</text>
<text x="288" y="175" class="e bold"  >-r</text>
<text x="324" y="175" class="d"  >|</text>
<text x="348" y="175" class="f bold"  >--range</text>
<text x="432" y="175" class="d"  >]</text>
<text x="456" y="175" class="g"  >INPUT</text>
<text x="528" y="175" class="g"  >[INPUT</text>
<text x="600" y="175" class="d"  >...]</text>
<text x="96" y="200" class="d"  >[</text>
<text x="108" y="200" class="e bold"  >-p</text>
<text x="144" y="200" class="d"  >|</text>
<text x="168" y="200" class="f bold"  >--path</text>
<text x="240" y="200" class="d"  >]</text>
<text x="264" y="200" class="d"  >[</text>
<text x="276" y="200" class="e bold"  >-c</text>
<text x="312" y="200" class="d"  >|</text>
<text x="336" y="200" class="f bold"  >--clang</text>
<text x="420" y="200" class="d"  >]</text>
<text x="444" y="200" class="d"  >[</text>
<text x="456" y="200" class="e bold"  >-I</text>
<text x="492" y="200" class="d"  >|</text>
<text x="516" y="200" class="f bold"  >--ibuff</text>
<text x="600" y="200" class="d"  >]</text>
<text x="624" y="200" class="d"  >[</text>
<text x="636" y="200" class="e bold"  >-O</text>
<text x="672" y="200" class="d"  >|</text>
<text x="696" y="200" class="f bold"  >--obuff</text>
<text x="780" y="200" class="d"  >]</text>
<text x="144" y="225" class="d"  >[</text>
<text x="156" y="225" class="e bold"  >-D</text>
<text x="192" y="225" class="d"  >|</text>
<text x="216" y="225" class="f bold"  >--define</text>
<text x="312" y="225" class="d"  >]</text>
<text x="336" y="225" class="d"  >[</text>
<text x="348" y="225" class="e bold"  >-K</text>
<text x="384" y="225" class="d"  >|</text>
<text x="408" y="225" class="f bold"  >--keep</text>
<text x="492" y="225" class="d"  >|</text>
<text x="516" y="225" class="f bold"  >--no-keep</text>
<text x="624" y="225" class="d"  >]</text>
<text x="144" y="250" class="d"  >[</text>
<text x="156" y="250" class="e bold"  >-P</text>
<text x="192" y="250" class="d"  >|</text>
<text x="216" y="250" class="f bold"  >--poll</text>
<text x="288" y="250" class="d"  >]</text>
<text x="312" y="250" class="d"  >[</text>
<text x="324" y="250" class="e bold"  >-U</text>
<text x="360" y="250" class="d"  >|</text>
<text x="384" y="250" class="f bold"  >--timeout</text>
<text x="492" y="250" class="d"  >]</text>
<text x="96" y="275" class="d"  >[</text>
<text x="108" y="275" class="e bold"  >-l</text>
<text x="144" y="275" class="d"  >|</text>
<text x="168" y="275" class="f bold"  >--log</text>
<text x="228" y="275" class="d"  >]</text>
<text x="252" y="275" class="d"  >[</text>
<text x="264" y="275" class="e bold"  >-C</text>
<text x="300" y="275" class="d"  >|</text>
<text x="324" y="275" class="f bold"  >--color</text>
<text x="408" y="275" class="d"  >]</text>
<text x="432" y="275" class="d"  >[</text>
<text x="444" y="275" class="e bold"  >-E</text>
<text x="480" y="275" class="d"  >|</text>
<text x="504" y="275" class="f bold"  >--truncate</text>
<text x="624" y="275" class="d"  >]</text>
<text x="648" y="275" class="d"  >[</text>
<text x="660" y="275" class="e bold"  >-W</text>
<text x="696" y="275" class="d"  >|</text>
<text x="720" y="275" class="f bold"  >--width</text>
<text x="804" y="275" class="d"  >]</text>
<text x="48" y="300" class="d"  >tool</text>
<text x="108" y="300" class="d"  >[</text>
<text x="120" y="300" class="e bold"  >-s</text>
<text x="156" y="300" class="d"  >|</text>
<text x="180" y="300" class="f bold"  >--script</text>
<text x="276" y="300" class="d"  >]</text>
<text x="300" y="300" class="g"  >INPUT</text>
<text x="372" y="300" class="d"  >[</text>
<text x="384" y="300" class="g"  >INPUT</text>
<text x="444" y="300" class="d"  >...]</text>
<text x="48" y="325" class="d"  >tool</text>
<text x="108" y="325" class="d"  >[</text>
<text x="120" y="325" class="e bold"  >-t</text>
<text x="156" y="325" class="d"  >|</text>
<text x="180" y="325" class="f bold"  >--test</text>
<text x="252" y="325" class="d"  >]</text>
<text x="276" y="325" class="g"  >INPUT</text>
<text x="348" y="325" class="d"  >[</text>
<text x="360" y="325" class="g"  >INPUT</text>
<text x="420" y="325" class="d"  >...]</text>
<text x="48" y="350" class="d"  >tool</text>
<text x="108" y="350" class="d"  >[</text>
<text x="120" y="350" class="e bold"  >-T</text>
<text x="156" y="350" class="d"  >|</text>
<text x="180" y="350" class="f bold"  >--time</text>
<text x="252" y="350" class="d"  >]</text>
<text x="276" y="350" class="d"  >[</text>
<text x="288" y="350" class="e bold"  >-M</text>
<text x="324" y="350" class="d"  >|</text>
<text x="348" y="350" class="f bold"  >--mem</text>
<text x="408" y="350" class="d"  >]</text>
<text x="432" y="350" class="d"  >[</text>
<text x="444" y="350" class="e bold"  >-F</text>
<text x="480" y="350" class="d"  >|</text>
<text x="504" y="350" class="f bold"  >--filter</text>
<text x="600" y="350" class="d"  >]</text>
<text x="624" y="350" class="g"  >INPUT</text>
<text x="696" y="350" class="d"  >[</text>
<text x="708" y="350" class="g"  >INPUT</text>
<text x="768" y="350" class="d"  >...]</text>
<text x="0" y="400" class="a bold"  >DESCRIPTION</text>
<text x="48" y="425" class="g"  >pre</text>
<text x="96" y="425" class="d"  >stage</text>
<text x="48" y="475" class="d"  >Guard</text>
<text x="120" y="475" class="d"  >all</text>
<text x="168" y="475" class="c italic"  >#include</text>
<text x="276" y="475" class="d"  >pragmas</text>
<text x="372" y="475" class="d"  >with</text>
<text x="432" y="475" class="d"  >marker</text>
<text x="516" y="475" class="d"  >of</text>
<text x="552" y="475" class="d"  >the</text>
<text x="600" y="475" class="d"  >form</text>
<text x="660" y="475" class="c italic"  >int</text>
<text x="708" y="475" class="c italic"  >ABC</text>
<text x="744" y="475" class="d"  >;</text>
<text x="768" y="475" class="d"  >and</text>
<text x="816" y="475" class="d"  >comment</text>
<text x="48" y="500" class="d"  >out</text>
<text x="96" y="500" class="d"  >those</text>
<text x="168" y="500" class="d"  >pragmas</text>
<text x="264" y="500" class="d"  >as</text>
<text x="300" y="500" class="c italic"  >/*</text>
<text x="336" y="500" class="c italic"  >ABC#include...</text>
<text x="516" y="500" class="c italic"  >*/</text>
<text x="540" y="500" class="d"  >.</text>
<text x="564" y="500" class="c italic"  >ABC</text>
<text x="612" y="500" class="d"  >is</text>
<text x="648" y="500" class="d"  >some</text>
<text x="708" y="500" class="d"  >random</text>
<text x="792" y="500" class="d"  >integer.</text>
<text x="48" y="550" class="g"  >mid</text>
<text x="96" y="550" class="d"  >stage</text>
<text x="48" y="600" class="d"  >Process</text>
<text x="144" y="600" class="d"  >remaining</text>
<text x="264" y="600" class="d"  >derictives</text>
<text x="396" y="600" class="d"  >with</text>
<text x="456" y="600" class="d"  >clang</text>
<text x="528" y="600" class="d"  >preprocessor</text>
<text x="684" y="600" class="d"  >with</text>
<text x="744" y="600" class="e bold"  >-C</text>
<text x="780" y="600" class="d"  >specified</text>
<text x="48" y="625" class="d"  >by</text>
<text x="84" y="625" class="d"  >default</text>
<text x="180" y="625" class="d"  >(see</text>
<text x="240" y="625" class="e bold"  >-K</text>
<text x="264" y="625" class="d"  >,</text>
<text x="276" y="625" class="f bold"  >--keep</text>
<text x="360" y="625" class="d"  >option)</text>
<text x="456" y="625" class="d"  >to</text>
<text x="492" y="625" class="d"  >retain</text>
<text x="576" y="625" class="d"  >comments</text>
<text x="684" y="625" class="d"  >and</text>
<text x="732" y="625" class="e bold"  >-P</text>
<text x="48" y="650" class="d"  >to</text>
<text x="84" y="650" class="d"  >not</text>
<text x="132" y="650" class="d"  >include</text>
<text x="228" y="650" class="d"  >a</text>
<text x="252" y="650" class="d"  >line</text>
<text x="312" y="650" class="d"  >markers</text>
<text x="408" y="650" class="d"  >at</text>
<text x="444" y="650" class="d"  >the</text>
<text x="492" y="650" class="d"  >beggining</text>
<text x="612" y="650" class="d"  >of</text>
<text x="648" y="650" class="d"  >the</text>
<text x="696" y="650" class="d"  >file.</text>
<text x="48" y="700" class="g"  >post</text>
<text x="108" y="700" class="d"  >stage</text>
<text x="48" y="750" class="d"  >Remove</text>
<text x="132" y="750" class="d"  >guarding</text>
<text x="240" y="750" class="d"  >markers</text>
<text x="336" y="750" class="d"  >and</text>
<text x="384" y="750" class="d"  >commented</text>
<text x="504" y="750" class="d"  >derictives</text>
<text x="636" y="750" class="d"  >which</text>
<text x="708" y="750" class="d"  >do</text>
<text x="744" y="750" class="d"  >not</text>
<text x="792" y="750" class="d"  >have</text>
<text x="852" y="750" class="d"  >a</text>
<text x="48" y="775" class="d"  >guard</text>
<text x="120" y="775" class="d"  >anymore</text>
<text x="216" y="775" class="d"  >since</text>
<text x="288" y="775" class="d"  >clang</text>
<text x="360" y="775" class="d"  >preprocessor</text>
<text x="516" y="775" class="d"  >has</text>
<text x="564" y="775" class="d"  >removed</text>
<text x="660" y="775" class="d"  >the</text>
<text x="708" y="775" class="d"  >range</text>
<text x="780" y="775" class="d"  >of</text>
<text x="816" y="775" class="d"  >lines,</text>
<text x="48" y="800" class="d"  >because</text>
<text x="144" y="800" class="d"  >of</text>
<text x="180" y="800" class="d"  >not</text>
<text x="228" y="800" class="d"  >satisfied</text>
<text x="348" y="800" class="c italic"  >#ifdef</text>
<text x="420" y="800" class="d"  >/</text>
<text x="432" y="800" class="c italic"  >#ifndef</text>
<text x="528" y="800" class="d"  >pragmas</text>
<text x="624" y="800" class="d"  >around</text>
<text x="708" y="800" class="d"  >the</text>
<text x="756" y="800" class="d"  >marker.</text>
<text x="0" y="875" class="a bold"  >options:</text>
<text x="24" y="900" class="e bold"  >-h</text>
<text x="48" y="900" class="d"  >,</text>
<text x="72" y="900" class="f bold"  >--help</text>
<text x="288" y="900" class="d"  >show</text>
<text x="348" y="900" class="d"  >this</text>
<text x="408" y="900" class="d"  >help</text>
<text x="468" y="900" class="d"  >message</text>
<text x="564" y="900" class="d"  >and</text>
<text x="612" y="900" class="d"  >exit</text>
<text x="24" y="925" class="e bold"  >-v</text>
<text x="48" y="925" class="d"  >,</text>
<text x="72" y="925" class="f bold"  >--version</text>
<text x="288" y="925" class="d"  >show</text>
<text x="348" y="925" class="d"  >program&#39;s</text>
<text x="468" y="925" class="d"  >version</text>
<text x="564" y="925" class="d"  >number</text>
<text x="648" y="925" class="d"  >and</text>
<text x="696" y="925" class="d"  >exit</text>
<text x="0" y="975" class="a bold"  >input</text>
<text x="72" y="975" class="a bold"  >and</text>
<text x="120" y="975" class="a bold"  >output</text>
<text x="204" y="975" class="a bold"  >files:</text>
<text x="24" y="1000" class="e bold"  >input</text>
<text x="288" y="1000" class="d"  >input</text>
<text x="360" y="1000" class="d"  >file</text>
<text x="420" y="1000" class="d"  >path(s),</text>
<text x="528" y="1000" class="d"  >use</text>
<text x="576" y="1000" class="g"  >-</text>
<text x="600" y="1000" class="d"  >to</text>
<text x="636" y="1000" class="d"  >read</text>
<text x="696" y="1000" class="d"  >from</text>
<text x="756" y="1000" class="d"  >stdin;</text>
<text x="288" y="1025" class="d"  >prepend</text>
<text x="384" y="1025" class="d"  >with</text>
<text x="444" y="1025" class="g"  >@</text>
<text x="468" y="1025" class="d"  >to</text>
<text x="504" y="1025" class="d"  >treat</text>
<text x="576" y="1025" class="d"  >as</text>
<text x="612" y="1025" class="d"  >file</text>
<text x="672" y="1025" class="d"  >to</text>
<text x="708" y="1025" class="d"  >read</text>
<text x="768" y="1025" class="d"  >input</text>
<text x="288" y="1050" class="d"  >file</text>
<text x="348" y="1050" class="d"  >paths</text>
<text x="420" y="1050" class="d"  >from</text>
<text x="480" y="1050" class="d"  >(one</text>
<text x="540" y="1050" class="d"  >per-line)</text>
<text x="24" y="1075" class="e bold"  >-o</text>
<text x="48" y="1075" class="d"  >,</text>
<text x="72" y="1075" class="f bold"  >--out</text>
<text x="144" y="1075" class="h bold"  >OUT</text>
<text x="288" y="1075" class="d"  >output</text>
<text x="372" y="1075" class="d"  >file</text>
<text x="432" y="1075" class="d"  >path,</text>
<text x="504" y="1075" class="d"  >use</text>
<text x="552" y="1075" class="g"  >-</text>
<text x="576" y="1075" class="d"  >to</text>
<text x="612" y="1075" class="d"  >output</text>
<text x="696" y="1075" class="d"  >to</text>
<text x="732" y="1075" class="d"  >stdout;</text>
<text x="288" y="1100" class="d"  >prepend</text>
<text x="384" y="1100" class="d"  >with</text>
<text x="444" y="1100" class="g"  >@</text>
<text x="468" y="1100" class="d"  >to</text>
<text x="504" y="1100" class="d"  >treat</text>
<text x="576" y="1100" class="d"  >as</text>
<text x="612" y="1100" class="d"  >file</text>
<text x="672" y="1100" class="d"  >to</text>
<text x="708" y="1100" class="d"  >read</text>
<text x="288" y="1125" class="d"  >output</text>
<text x="372" y="1125" class="d"  >file</text>
<text x="432" y="1125" class="d"  >paths</text>
<text x="504" y="1125" class="d"  >from</text>
<text x="564" y="1125" class="d"  >(one</text>
<text x="624" y="1125" class="d"  >per-line)</text>
<text x="744" y="1125" class="d"  >(default:</text>
<text x="864" y="1125" class="d"  >None)</text>
<text x="24" y="1150" class="e bold"  >-q</text>
<text x="48" y="1150" class="d"  >,</text>
<text x="72" y="1150" class="f bold"  >--queue</text>
<text x="168" y="1150" class="h bold"  >SIZE</text>
<text x="288" y="1150" class="d"  >line</text>
<text x="348" y="1150" class="d"  >queue</text>
<text x="420" y="1150" class="d"  >size</text>
<text x="480" y="1150" class="d"  >limit</text>
<text x="552" y="1150" class="d"  >for</text>
<text x="600" y="1150" class="d"  >comminicating</text>
<text x="768" y="1150" class="d"  >with</text>
<text x="288" y="1175" class="d bold italic"  >clang</text>
<text x="348" y="1175" class="d"  >;</text>
<text x="372" y="1175" class="d"  >value</text>
<text x="444" y="1175" class="d"  >&lt;=</text>
<text x="480" y="1175" class="d"  >0</text>
<text x="504" y="1175" class="d"  >makes</text>
<text x="576" y="1175" class="d"  >queue</text>
<text x="648" y="1175" class="d"  >size</text>
<text x="288" y="1200" class="d"  >unbound</text>
<text x="384" y="1200" class="d"  >(default:</text>
<text x="504" y="1200" class="d"  >0)</text>
<text x="24" y="1225" class="e bold"  >-P</text>
<text x="48" y="1225" class="d"  >,</text>
<text x="72" y="1225" class="f bold"  >--poll</text>
<text x="156" y="1225" class="h bold"  >SEC</text>
<text x="288" y="1225" class="d"  >period</text>
<text x="372" y="1225" class="d"  >for</text>
<text x="420" y="1225" class="d"  >polling</text>
<text x="516" y="1225" class="d"  >each</text>
<text x="576" y="1225" class="d"  >io</text>
<text x="612" y="1225" class="d"  >thread</text>
<text x="696" y="1225" class="d"  >until</text>
<text x="768" y="1225" class="d"  >it</text>
<text x="804" y="1225" class="d"  >finished</text>
<text x="288" y="1250" class="d"  >their</text>
<text x="360" y="1250" class="d"  >work</text>
<text x="420" y="1250" class="d"  >(default:</text>
<text x="540" y="1250" class="d"  >1.0)</text>
<text x="24" y="1275" class="e bold"  >-U</text>
<text x="48" y="1275" class="d"  >,</text>
<text x="72" y="1275" class="f bold"  >--timeout</text>
<text x="192" y="1275" class="h bold"  >SEC</text>
<text x="288" y="1275" class="d"  >time</text>
<text x="348" y="1275" class="d"  >to</text>
<text x="384" y="1275" class="d"  >wait</text>
<text x="444" y="1275" class="d"  >until</text>
<text x="516" y="1275" class="d bold italic"  >clang</text>
<text x="588" y="1275" class="d"  >finished</text>
<text x="288" y="1300" class="d"  >their</text>
<text x="360" y="1300" class="d"  >work</text>
<text x="420" y="1300" class="d"  >(default:</text>
<text x="540" y="1300" class="d"  >1.0)</text>
<text x="24" y="1325" class="e bold"  >-t</text>
<text x="48" y="1325" class="d"  >,</text>
<text x="72" y="1325" class="f bold"  >--test</text>
<text x="288" y="1325" class="d"  >discard</text>
<text x="384" y="1325" class="d"  >all</text>
<text x="432" y="1325" class="d"  >output</text>
<text x="516" y="1325" class="d"  >to</text>
<text x="552" y="1325" class="c italic"  >/dev/null</text>
<text x="288" y="1350" class="d"  >(default:</text>
<text x="408" y="1350" class="d"  >False)</text>
<text x="0" y="1400" class="a bold"  >selecting</text>
<text x="120" y="1400" class="a bold"  >stages:</text>
<text x="24" y="1425" class="e bold"  >-s</text>
<text x="48" y="1425" class="d"  >,</text>
<text x="72" y="1425" class="f bold"  >--stage</text>
<text x="168" y="1425" class="h bold"  >{pre,mid,post,all,none}</text>
<text x="456" y="1425" class="h bold"  >[{pre,mid,post,all,none}</text>
<text x="756" y="1425" class="h bold"  >...]</text>
<text x="288" y="1450" class="d"  >what</text>
<text x="348" y="1450" class="d"  >stages</text>
<text x="432" y="1450" class="d"  >to</text>
<text x="468" y="1450" class="d"  >run;</text>
<text x="528" y="1450" class="g"  >all</text>
<text x="576" y="1450" class="d"  >overrides</text>
<text x="696" y="1450" class="d"  >separate</text>
<text x="288" y="1475" class="d"  >stages;</text>
<text x="384" y="1475" class="g"  >none</text>
<text x="444" y="1475" class="d"  >overrides</text>
<text x="564" y="1475" class="g"  >all</text>
<text x="612" y="1475" class="d"  >(default:</text>
<text x="288" y="1500" class="d"  >[&#39;all&#39;])</text>
<text x="24" y="1525" class="e bold"  >-S</text>
<text x="48" y="1525" class="d"  >,</text>
<text x="72" y="1525" class="f bold"  >--script</text>
<text x="180" y="1525" class="h bold"  >SCRIPT</text>
<text x="288" y="1525" class="d"  >run</text>
<text x="336" y="1525" class="d"  >shell</text>
<text x="408" y="1525" class="d"  >scrpt</text>
<text x="480" y="1525" class="d"  >instead</text>
<text x="576" y="1525" class="d"  >of</text>
<text x="612" y="1525" class="d"  >the</text>
<text x="660" y="1525" class="d"  >default</text>
<text x="288" y="1550" class="d bold italic"  >clang</text>
<text x="360" y="1550" class="d"  >command</text>
<text x="456" y="1550" class="d"  >(see</text>
<text x="516" y="1550" class="a bold"  >NOTES</text>
<text x="576" y="1550" class="d"  >)</text>
<text x="288" y="1575" class="d"  >(default:</text>
<text x="408" y="1575" class="d"  >None)</text>
<text x="0" y="1625" class="a bold"  >selecting</text>
<text x="120" y="1625" class="a bold"  >lines:</text>
<text x="24" y="1650" class="e bold"  >-r</text>
<text x="48" y="1650" class="d"  >,</text>
<text x="72" y="1650" class="f bold"  >--range</text>
<text x="168" y="1650" class="h bold"  >RANGE</text>
<text x="240" y="1650" class="h bold"  >[RANGE</text>
<text x="324" y="1650" class="h bold"  >...]</text>
<text x="288" y="1675" class="d"  >process</text>
<text x="384" y="1675" class="d"  >only</text>
<text x="444" y="1675" class="d"  >specified</text>
<text x="564" y="1675" class="d"  >line</text>
<text x="624" y="1675" class="d"  >range(s)</text>
<text x="732" y="1675" class="d"  >(default:</text>
<text x="852" y="1675" class="d"  >process</text>
<text x="288" y="1700" class="d"  >entire</text>
<text x="372" y="1700" class="d"  >file)</text>
<text x="444" y="1700" class="d"  >(default:</text>
<text x="564" y="1700" class="d"  >None)</text>
<text x="0" y="1750" class="a bold"  >compiler</text>
<text x="108" y="1750" class="a bold"  >settings:</text>
<text x="24" y="1775" class="e bold"  >-p</text>
<text x="48" y="1775" class="d"  >,</text>
<text x="72" y="1775" class="f bold"  >--path</text>
<text x="156" y="1775" class="h bold"  >EXEC</text>
<text x="288" y="1775" class="d"  >path</text>
<text x="348" y="1775" class="d"  >to</text>
<text x="384" y="1775" class="d bold italic"  >clang</text>
<text x="456" y="1775" class="d"  >compiler</text>
<text x="564" y="1775" class="d"  >(default:</text>
<text x="288" y="1800" class="d"  >search</text>
<text x="372" y="1800" class="d"  >in</text>
<text x="408" y="1800" class="c italic"  >$PATH</text>
<text x="468" y="1800" class="d"  >)</text>
<text x="492" y="1800" class="d"  >(default:</text>
<text x="612" y="1800" class="d"  >None)</text>
<text x="24" y="1825" class="e bold"  >-c</text>
<text x="48" y="1825" class="d"  >,</text>
<text x="72" y="1825" class="f bold"  >--clang</text>
<text x="168" y="1825" class="h bold"  >ARG</text>
<text x="288" y="1825" class="d"  >argument</text>
<text x="396" y="1825" class="d"  >forwarder</text>
<text x="516" y="1825" class="d"  >to</text>
<text x="552" y="1825" class="d bold italic"  >clang</text>
<text x="624" y="1825" class="d"  >(default:</text>
<text x="288" y="1850" class="d"  >None)</text>
<text x="24" y="1875" class="e bold"  >-I</text>
<text x="48" y="1875" class="d"  >,</text>
<text x="72" y="1875" class="f bold"  >--ibuff</text>
<text x="168" y="1875" class="h bold"  >{def,line,zero}</text>
<text x="288" y="1900" class="d"  >buffering</text>
<text x="408" y="1900" class="d"  >for</text>
<text x="456" y="1900" class="d bold italic"  >clang</text>
<text x="528" y="1900" class="d"  >process</text>
<text x="624" y="1900" class="d"  >stdin</text>
<text x="288" y="1925" class="d"  >(default:</text>
<text x="408" y="1925" class="d"  >def)</text>
<text x="24" y="1950" class="e bold"  >-O</text>
<text x="48" y="1950" class="d"  >,</text>
<text x="72" y="1950" class="f bold"  >--obuff</text>
<text x="168" y="1950" class="h bold"  >{def,line,zero}</text>
<text x="288" y="1975" class="d"  >buffering</text>
<text x="408" y="1975" class="d"  >for</text>
<text x="456" y="1975" class="d bold italic"  >clang</text>
<text x="528" y="1975" class="d"  >process</text>
<text x="624" y="1975" class="d"  >stdout</text>
<text x="288" y="2000" class="d"  >(default:</text>
<text x="408" y="2000" class="d"  >def)</text>
<text x="0" y="2050" class="a bold"  >preprocessor</text>
<text x="156" y="2050" class="a bold"  >behavior:</text>
<text x="24" y="2075" class="e bold"  >-D</text>
<text x="48" y="2075" class="d"  >,</text>
<text x="72" y="2075" class="f bold"  >--define</text>
<text x="180" y="2075" class="h bold"  >DEF</text>
<text x="288" y="2075" class="d bold italic"  >clang</text>
<text x="360" y="2075" class="d"  >preprocessor</text>
<text x="516" y="2075" class="d"  >definitions</text>
<text x="660" y="2075" class="d"  >(used</text>
<text x="288" y="2100" class="d"  >for</text>
<text x="336" y="2100" class="d"  >resolving</text>
<text x="288" y="2125" class="c italic"  >#ifdef</text>
<text x="360" y="2125" class="d"  >/</text>
<text x="372" y="2125" class="c italic"  >#ifndef</text>
<text x="456" y="2125" class="d"  >)</text>
<text x="288" y="2150" class="d"  >(default:</text>
<text x="408" y="2150" class="d"  >None)</text>
<text x="24" y="2175" class="e bold"  >-K</text>
<text x="48" y="2175" class="d"  >,</text>
<text x="72" y="2175" class="f bold"  >--keep</text>
<text x="144" y="2175" class="d"  >,</text>
<text x="168" y="2175" class="f bold"  >--no-keep</text>
<text x="288" y="2200" class="d"  >whether</text>
<text x="384" y="2200" class="d"  >to</text>
<text x="420" y="2200" class="d"  >add</text>
<text x="468" y="2200" class="e bold"  >-C</text>
<text x="504" y="2200" class="d"  >option</text>
<text x="588" y="2200" class="d"  >to</text>
<text x="288" y="2225" class="d bold italic"  >clang</text>
<text x="360" y="2225" class="d"  >preprocessor;</text>
<text x="528" y="2225" class="d"  >passing</text>
<text x="288" y="2250" class="f bold"  >--no-keep</text>
<text x="408" y="2250" class="d"  >will</text>
<text x="468" y="2250" class="d"  >result</text>
<text x="552" y="2250" class="d"  >in</text>
<text x="588" y="2250" class="d"  >all</text>
<text x="288" y="2275" class="c italic"  >#include</text>
<text x="384" y="2275" class="d"  >s</text>
<text x="408" y="2275" class="d"  >deleted</text>
<text x="504" y="2275" class="d"  >(default:</text>
<text x="624" y="2275" class="d"  >True)</text>
<text x="0" y="2325" class="a bold"  >logging:</text>
<text x="24" y="2350" class="e bold"  >-l</text>
<text x="48" y="2350" class="d"  >,</text>
<text x="72" y="2350" class="f bold"  >--log</text>
<text x="144" y="2350" class="h bold"  >LEVEL</text>
<text x="288" y="2350" class="d"  >minimal</text>
<text x="384" y="2350" class="d"  >log</text>
<text x="432" y="2350" class="d"  >level</text>
<text x="504" y="2350" class="d"  >to</text>
<text x="540" y="2350" class="d"  >output</text>
<text x="624" y="2350" class="d"  >(default:</text>
<text x="744" y="2350" class="d"  >WARNING)</text>
<text x="24" y="2375" class="e bold"  >-C</text>
<text x="48" y="2375" class="d"  >,</text>
<text x="72" y="2375" class="f bold"  >--color</text>
<text x="168" y="2375" class="h bold"  >WHEN</text>
<text x="288" y="2375" class="d"  >when</text>
<text x="348" y="2375" class="d"  >color</text>
<text x="420" y="2375" class="d"  >the</text>
<text x="468" y="2375" class="d"  >logs</text>
<text x="528" y="2375" class="d"  >(default:</text>
<text x="648" y="2375" class="d"  >auto)</text>
<text x="24" y="2400" class="e bold"  >-E</text>
<text x="48" y="2400" class="d"  >,</text>
<text x="72" y="2400" class="f bold"  >--truncate</text>
<text x="204" y="2400" class="h bold"  >WHEN</text>
<text x="288" y="2400" class="d"  >when</text>
<text x="348" y="2400" class="d"  >truncate</text>
<text x="456" y="2400" class="d"  >the</text>
<text x="504" y="2400" class="d"  >log</text>
<text x="552" y="2400" class="d"  >line</text>
<text x="612" y="2400" class="d"  >length;</text>
<text x="708" y="2400" class="d"  >default</text>
<text x="804" y="2400" class="d"  >cuts</text>
<text x="864" y="2400" class="d"  >logs</text>
<text x="288" y="2425" class="d"  >from</text>
<text x="348" y="2425" class="d"  >the</text>
<text x="396" y="2425" class="d"  >right</text>
<text x="468" y="2425" class="d"  >(see</text>
<text x="528" y="2425" class="d"  >also</text>
<text x="288" y="2450" class="e bold"  >-W</text>
<text x="312" y="2450" class="d"  >,</text>
<text x="324" y="2450" class="f bold"  >--width</text>
<text x="408" y="2450" class="d"  >)</text>
<text x="288" y="2475" class="d"  >(default:</text>
<text x="408" y="2475" class="d"  >always)</text>
<text x="24" y="2500" class="e bold"  >-W</text>
<text x="48" y="2500" class="d"  >,</text>
<text x="72" y="2500" class="f bold"  >--width</text>
<text x="168" y="2500" class="h bold"  >WIDTH</text>
<text x="288" y="2500" class="d"  >force</text>
<text x="360" y="2500" class="d"  >terminal</text>
<text x="468" y="2500" class="d"  >value</text>
<text x="540" y="2500" class="d"  >to</text>
<text x="576" y="2500" class="d"  >this</text>
<text x="636" y="2500" class="d"  >value;</text>
<text x="720" y="2500" class="d"  >specifying</text>
<text x="852" y="2500" class="d"  >&#39;0&#39;</text>
<text x="288" y="2525" class="d"  >equal</text>
<text x="360" y="2525" class="d"  >to</text>
<text x="396" y="2525" class="d"  >&#39;-E</text>
<text x="444" y="2525" class="d"  >always&#39;,</text>
<text x="552" y="2525" class="d"  >while</text>
<text x="624" y="2525" class="d"  >&#39;-1&#39;</text>
<text x="684" y="2525" class="d"  >equal</text>
<text x="756" y="2525" class="d"  >to</text>
<text x="792" y="2525" class="d"  >&#39;-E</text>
<text x="840" y="2525" class="d"  >never</text>
<text x="288" y="2550" class="d"  >(see</text>
<text x="348" y="2550" class="d"  >also</text>
<text x="408" y="2550" class="e bold"  >-T</text>
<text x="432" y="2550" class="d"  >,</text>
<text x="444" y="2550" class="f bold"  >--</text>
<text x="288" y="2575" class="f bold"  >truncate</text>
<text x="384" y="2575" class="d"  >)</text>
<text x="408" y="2575" class="d"  >(default:</text>
<text x="528" y="2575" class="d"  >None)</text>
<text x="24" y="2600" class="e bold"  >-T</text>
<text x="48" y="2600" class="d"  >,</text>
<text x="72" y="2600" class="f bold"  >--time</text>
<text x="288" y="2600" class="d"  >measure</text>
<text x="384" y="2600" class="d"  >the</text>
<text x="432" y="2600" class="d"  >execution</text>
<text x="552" y="2600" class="d"  >time</text>
<text x="612" y="2600" class="d"  >using</text>
<text x="288" y="2625" class="c italic"  >timeit</text>
<text x="372" y="2625" class="d"  >module</text>
<text x="456" y="2625" class="d"  >(default:</text>
<text x="576" y="2625" class="d"  >False)</text>
<text x="24" y="2650" class="e bold"  >-M</text>
<text x="48" y="2650" class="d"  >,</text>
<text x="72" y="2650" class="f bold"  >--mem</text>
<text x="288" y="2650" class="d"  >print</text>
<text x="360" y="2650" class="d"  >the</text>
<text x="408" y="2650" class="d"  >memory</text>
<text x="492" y="2650" class="d"  >footprint</text>
<text x="612" y="2650" class="d"  >captured</text>
<text x="720" y="2650" class="d"  >using</text>
<text x="288" y="2675" class="c italic"  >tracemalloc</text>
<text x="432" y="2675" class="d"  >module</text>
<text x="516" y="2675" class="d"  >using</text>
<text x="588" y="2675" class="d"  >(default:</text>
<text x="288" y="2700" class="d"  >False)</text>
<text x="24" y="2725" class="e bold"  >-F</text>
<text x="48" y="2725" class="d"  >,</text>
<text x="72" y="2725" class="f bold"  >--filter</text>
<text x="180" y="2725" class="h bold"  >{self,sub}</text>
<text x="312" y="2725" class="h bold"  >[{self,sub}</text>
<text x="456" y="2725" class="h bold"  >...]</text>
<text x="288" y="2750" class="d"  >filter</text>
<text x="372" y="2750" class="d"  >out</text>
<text x="420" y="2750" class="c italic"  >tracemalloc</text>
<text x="564" y="2750" class="d"  >results</text>
<text x="288" y="2775" class="d"  >(default:</text>
<text x="408" y="2775" class="d"  >None)</text>
<text x="0" y="2825" class="a bold"  >ENVIRONMENT</text>
<text x="48" y="2850" class="d bold underline"  >TOOL_LOG_LEVEL</text>
<text x="228" y="2850" class="d"  >setting</text>
<text x="324" y="2850" class="d"  >this</text>
<text x="384" y="2850" class="d"  >takes</text>
<text x="456" y="2850" class="d"  >precedence</text>
<text x="588" y="2850" class="d"  >over</text>
<text x="648" y="2850" class="e bold"  >-l</text>
<text x="672" y="2850" class="d"  >,</text>
<text x="684" y="2850" class="f bold"  >--log</text>
<text x="756" y="2850" class="d"  >option;</text>
<text x="852" y="2850" class="d"  >see</text>
<text x="48" y="2875" class="d"  >option</text>
<text x="132" y="2875" class="d"  >description</text>
<text x="276" y="2875" class="d"  >for</text>
<text x="324" y="2875" class="d"  >the</text>
<text x="372" y="2875" class="d"  >list</text>
<text x="432" y="2875" class="d"  >of</text>
<text x="468" y="2875" class="d"  >possible</text>
<text x="576" y="2875" class="d"  >values;</text>
<text x="672" y="2875" class="d"  >set</text>
<text x="720" y="2875" class="d"  >but</text>
<text x="768" y="2875" class="d"  >empty</text>
<text x="840" y="2875" class="d"  >equals</text>
<text x="48" y="2900" class="d"  >setting</text>
<text x="144" y="2900" class="d"  >&#39;DEBUG&#39;.</text>
<text x="48" y="2950" class="d bold underline"  >TOOL_COLOR</text>
<text x="180" y="2950" class="d"  >setting</text>
<text x="276" y="2950" class="d"  >this</text>
<text x="336" y="2950" class="d"  >takes</text>
<text x="408" y="2950" class="d"  >precedence</text>
<text x="540" y="2950" class="d"  >over</text>
<text x="600" y="2950" class="e bold"  >-c</text>
<text x="624" y="2950" class="d"  >,</text>
<text x="636" y="2950" class="f bold"  >--color</text>
<text x="732" y="2950" class="d"  >option;</text>
<text x="828" y="2950" class="d"  >see</text>
<text x="48" y="2975" class="d"  >option</text>
<text x="132" y="2975" class="d"  >description</text>
<text x="276" y="2975" class="d"  >for</text>
<text x="324" y="2975" class="d"  >the</text>
<text x="372" y="2975" class="d"  >list</text>
<text x="432" y="2975" class="d"  >of</text>
<text x="468" y="2975" class="d"  >possible</text>
<text x="576" y="2975" class="d"  >values;</text>
<text x="672" y="2975" class="d"  >set</text>
<text x="720" y="2975" class="d"  >but</text>
<text x="768" y="2975" class="d"  >empt</text>
<text x="828" y="2975" class="d"  >equals</text>
<text x="48" y="3000" class="d"  >setting</text>
<text x="144" y="3000" class="d"  >&#39;never&#39;.</text>
<text x="252" y="3000" class="d"  >Note</text>
<text x="312" y="3000" class="d"  >that</text>
<text x="372" y="3000" class="d"  >setting</text>
<text x="468" y="3000" class="d"  >this</text>
<text x="528" y="3000" class="d"  >or</text>
<text x="564" y="3000" class="d"  >option</text>
<text x="648" y="3000" class="d"  >does</text>
<text x="708" y="3000" class="d"  >not</text>
<text x="756" y="3000" class="d"  >affect</text>
<text x="840" y="3000" class="d"  >the</text>
<text x="48" y="3025" class="d"  >colorization</text>
<text x="204" y="3025" class="d"  >of</text>
<text x="240" y="3025" class="d"  >the</text>
<text x="288" y="3025" class="d"  >help</text>
<text x="348" y="3025" class="d"  >text.</text>
<text x="420" y="3025" class="d"  >It</text>
<text x="456" y="3025" class="d"  >is</text>
<text x="492" y="3025" class="d"  >fixed</text>
<text x="564" y="3025" class="d"  >to</text>
<text x="600" y="3025" class="d"  >&#39;auto&#39;.</text>
<text x="48" y="3075" class="d bold underline"  >TOOL_TRUNCATE</text>
<text x="216" y="3075" class="d"  >setting</text>
<text x="312" y="3075" class="d"  >this</text>
<text x="372" y="3075" class="d"  >takes</text>
<text x="444" y="3075" class="d"  >precedence</text>
<text x="576" y="3075" class="d"  >over</text>
<text x="636" y="3075" class="e bold"  >-E</text>
<text x="660" y="3075" class="d"  >,</text>
<text x="672" y="3075" class="f bold"  >--truncate</text>
<text x="804" y="3075" class="d"  >option;</text>
<text x="900" y="3075" class="d"  >see</text>
<text x="48" y="3100" class="d"  >option</text>
<text x="132" y="3100" class="d"  >description</text>
<text x="276" y="3100" class="d"  >for</text>
<text x="324" y="3100" class="d"  >the</text>
<text x="372" y="3100" class="d"  >list</text>
<text x="432" y="3100" class="d"  >of</text>
<text x="468" y="3100" class="d"  >possible</text>
<text x="576" y="3100" class="d"  >values;</text>
<text x="672" y="3100" class="d"  >set</text>
<text x="720" y="3100" class="d"  >but</text>
<text x="768" y="3100" class="d"  >empty</text>
<text x="840" y="3100" class="d"  >equals</text>
<text x="48" y="3125" class="d"  >setting</text>
<text x="144" y="3125" class="d"  >&#39;never&#39;.</text>
<text x="0" y="3175" class="a bold"  >NOTES</text>
<text x="48" y="3200" class="d"  >The</text>
<text x="96" y="3200" class="d"  >default</text>
<text x="192" y="3200" class="d bold italic"  >clang</text>
<text x="264" y="3200" class="d"  >command</text>
<text x="360" y="3200" class="d"  >is</text>
<text x="396" y="3200" class="c italic"  >clang</text>
<text x="468" y="3200" class="c italic"  >-E</text>
<text x="504" y="3200" class="c italic"  >-P</text>
<text x="540" y="3200" class="c italic"  >-C</text>
<text x="576" y="3200" class="c italic"  >-o</text>
<text x="612" y="3200" class="c italic"  >-</text>
<text x="636" y="3200" class="c italic"  >-</text>
<text x="648" y="3200" class="d"  >.</text>
<text x="672" y="3200" class="d"  >See</text>
<text x="720" y="3200" class="d"  >also</text>
<text x="780" y="3200" class="e bold"  >-I</text>
<text x="804" y="3200" class="d"  >,</text>
<text x="828" y="3200" class="e bold"  >-O</text>
<text x="852" y="3200" class="d"  >,</text>
<text x="876" y="3200" class="e bold"  >-D</text>
<text x="912" y="3200" class="d"  >and</text>
<text x="48" y="3225" class="e bold"  >-S</text>
<text x="84" y="3225" class="d"  >options&#39;</text>
<text x="192" y="3225" class="d"  >description.</text>
<text x="48" y="3275" class="e bold"  >-E</text>
<text x="72" y="3275" class="d"  >,</text>
<text x="84" y="3275" class="f bold"  >--time</text>
<text x="168" y="3275" class="d"  >and</text>
<text x="216" y="3275" class="e bold"  >-M</text>
<text x="240" y="3275" class="f bold"  >--mem</text>
<text x="312" y="3275" class="d"  >flags</text>
<text x="384" y="3275" class="d"  >require</text>
<text x="480" y="3275" class="d"  >at</text>
<text x="516" y="3275" class="d"  >least</text>
<text x="588" y="3275" class="g"  >WARNING</text>
<text x="684" y="3275" class="d"  >(default)</text>
<text x="804" y="3275" class="d"  >log</text>
<text x="852" y="3275" class="d"  >level.</text>
<text x="48" y="3300" class="d"  >The</text>
<text x="96" y="3300" class="d"  >time</text>
<text x="156" y="3300" class="d"  >and</text>
<text x="204" y="3300" class="d"  >memory</text>
<text x="288" y="3300" class="d"  >profiling</text>
<text x="408" y="3300" class="d"  >result</text>
<text x="492" y="3300" class="d"  >are</text>
<text x="540" y="3300" class="d"  >printed</text>
<text x="636" y="3300" class="d"  >as</text>
<text x="672" y="3300" class="d"  >warning</text>
<text x="768" y="3300" class="d"  >messages.</text>
<text x="888" y="3300" class="d"  >This</text>
<text x="48" y="3325" class="d"  >is</text>
<text x="84" y="3325" class="d"  >expected</text>
<text x="192" y="3325" class="d"  >when</text>
<text x="252" y="3325" class="d"  >this</text>
<text x="312" y="3325" class="d"  >flags</text>
<text x="384" y="3325" class="d"  >are</text>
<text x="432" y="3325" class="d"  >present.</text>
<text x="48" y="3375" class="d"  >By</text>
<text x="84" y="3375" class="d"  >default</text>
<text x="180" y="3375" class="d"  >the</text>
<text x="228" y="3375" class="d"  >first</text>
<text x="300" y="3375" class="d bold italic"  >clang</text>
<text x="372" y="3375" class="d"  >found</text>
<text x="444" y="3375" class="d"  >in</text>
<text x="480" y="3375" class="c italic"  >$PATH</text>
<text x="552" y="3375" class="d"  >is</text>
<text x="588" y="3375" class="d"  >used.</text>
<text x="660" y="3375" class="d"  >Also</text>
<text x="720" y="3375" class="d"  >see</text>
<text x="768" y="3375" class="e bold"  >-p</text>
<text x="792" y="3375" class="d"  >,</text>
<text x="804" y="3375" class="f bold"  >--path</text>
<text x="48" y="3400" class="d"  >option.</text>
<text x="48" y="3450" class="e bold"  >-I</text>
<text x="72" y="3450" class="d"  >,</text>
<text x="84" y="3450" class="f bold"  >--ibuff</text>
<text x="180" y="3450" class="d"  >and</text>
<text x="228" y="3450" class="e bold"  >-O</text>
<text x="252" y="3450" class="f bold"  >,--outbuf</text>
<text x="372" y="3450" class="d"  >options</text>
<text x="468" y="3450" class="d"  >require</text>
<text x="564" y="3450" class="d bold italic"  >stdbuf</text>
<text x="648" y="3450" class="d"  >executable</text>
<text x="780" y="3450" class="d"  >to</text>
<text x="816" y="3450" class="d"  >be</text>
<text x="852" y="3450" class="d"  >in</text>
<text x="888" y="3450" class="c italic"  >$PATH</text>
<text x="948" y="3450" class="d" >.</text>
<text x="0" y="3500" class="a bold"  >CAVEATS</text>
<text x="48" y="3525" class="d"  >The</text>
<text x="96" y="3525" class="d"  >script</text>
<text x="180" y="3525" class="d"  >proces</text>
<text x="264" y="3525" class="d"  >input</text>
<text x="336" y="3525" class="d"  >files</text>
<text x="408" y="3525" class="d"  >into</text>
<text x="468" y="3525" class="d"  >output</text>
<text x="552" y="3525" class="d"  >files</text>
<text x="624" y="3525" class="d"  >in</text>
<text x="660" y="3525" class="d"  >pairs.</text>
<text x="744" y="3525" class="d"  >If</text>
<text x="780" y="3525" class="d"  >the</text>
<text x="828" y="3525" class="d"  >number</text>
<text x="48" y="3550" class="d"  >of</text>
<text x="84" y="3550" class="d"  >input</text>
<text x="156" y="3550" class="d"  >and</text>
<text x="204" y="3550" class="d"  >output</text>
<text x="288" y="3550" class="d"  >files</text>
<text x="360" y="3550" class="d"  >deffer,</text>
<text x="456" y="3550" class="d"  >the</text>
<text x="504" y="3550" class="d"  >script</text>
<text x="588" y="3550" class="d"  >will</text>
<text x="648" y="3550" class="d"  >stop</text>
<text x="708" y="3550" class="d"  >when</text>
<text x="768" y="3550" class="d"  >the</text>
<text x="816" y="3550" class="d"  >shortest</text>
<text x="48" y="3575" class="d"  >sequence</text>
<text x="156" y="3575" class="d"  >is</text>
<text x="192" y="3575" class="d"  >exhausted.</text>
<text x="48" y="3625" class="d"  >The</text>
<text x="96" y="3625" class="d"  >exception</text>
<text x="216" y="3625" class="d"  >is</text>
<text x="252" y="3625" class="d"  >no</text>
<text x="288" y="3625" class="d"  >ouput</text>
<text x="360" y="3625" class="d"  >specified;</text>
<text x="492" y="3625" class="d"  >in</text>
<text x="528" y="3625" class="d"  >this</text>
<text x="588" y="3625" class="d"  >case</text>
<text x="648" y="3625" class="d"  >the</text>
<text x="696" y="3625" class="d"  >resulting</text>
<text x="816" y="3625" class="d"  >lines</text>
<text x="48" y="3650" class="d"  >are</text>
<text x="96" y="3650" class="d"  >concatenaited</text>
<text x="264" y="3650" class="d"  >into</text>
<text x="324" y="3650" class="d"  >stdout.</text>
<text x="420" y="3650" class="d"  >This</text>
<text x="480" y="3650" class="d"  >is</text>
<text x="516" y="3650" class="d"  >to</text>
<text x="552" y="3650" class="d"  >assist</text>
<text x="636" y="3650" class="d"  >testing</text>
<text x="732" y="3650" class="d"  >a</text>
<text x="756" y="3650" class="d"  >simple</text>
<text x="48" y="3675" class="d"  >configurations.</text>
<text x="48" y="3725" class="d"  >Each</text>
<text x="108" y="3725" class="d"  >pair</text>
<text x="168" y="3725" class="d"  >is</text>
<text x="204" y="3725" class="d"  >processed</text>
<text x="324" y="3725" class="d"  >concurently,</text>
<text x="480" y="3725" class="d"  >so</text>
<text x="516" y="3725" class="d"  >repeated</text>
<text x="624" y="3725" class="d"  >output</text>
<text x="708" y="3725" class="d"  >file</text>
<text x="768" y="3725" class="d"  >arguments</text>
<text x="888" y="3725" class="d"  >will</text>
<text x="48" y="3750" class="d"  >cause</text>
<text x="120" y="3750" class="d"  >the</text>
<text x="168" y="3750" class="d"  >arbitrary</text>
<text x="288" y="3750" class="d"  >ordering</text>
<text x="396" y="3750" class="d"  >of</text>
<text x="432" y="3750" class="d"  >lines</text>
<text x="504" y="3750" class="d"  >inside</text>
<text x="588" y="3750" class="d"  >such</text>
<text x="648" y="3750" class="d"  >output</text>
<text x="732" y="3750" class="d"  >file.</text>
<text x="804" y="3750" class="d"  >The</text>
<text x="852" y="3750" class="d"  >ordering</text>
<text x="48" y="3775" class="d"  >is</text>
<text x="84" y="3775" class="d"  >not</text>
<text x="132" y="3775" class="d"  >deterministic,</text>
<text x="312" y="3775" class="d"  >that</text>
<text x="372" y="3775" class="d"  >is</text>
<text x="408" y="3775" class="d"  >each</text>
<text x="468" y="3775" class="d"  >run</text>
<text x="516" y="3775" class="d"  >likely</text>
<text x="600" y="3775" class="d"  >to</text>
<text x="636" y="3775" class="d"  >produce</text>
<text x="732" y="3775" class="d"  >the</text>
<text x="780" y="3775" class="d"  >new</text>
<text x="828" y="3775" class="d" >permutation</text>
<text x="48" y="3800" class="d"  >of</text>
<text x="84" y="3800" class="d"  >output</text>
<text x="168" y="3800" class="d"  >lines.</text>
</g>
</g>
</g>
</svg>
