<?xml version="1.0"?>
<!-- Generated by SVGo -->
<svg width="1000" height="3935"
     xmlns="http://www.w3.org/2000/svg"
     xmlns:xlink="http://www.w3.org/1999/xlink">
<rect x="0" y="0" width="1000" height="3935" style="fill:#FFFFFF" />
<g transform="translate(20,30)" >
<g style="animation-duration:0.00s;animation-iteration-count:infinite;animation-name:k;animation-timing-function:steps(1,end);font-family:Monago,Monaco,Consolas,Menlo,'Bitstream Vera Sans Mono','Powerline Symbols',monospace;font-size:20px">
<style type="text/css">
<![CDATA[
@keyframes k {NaN%{transform:translateX(-0px)}}.bold{font-weight:bold}.italic{font-style:italic}.underline{text-decoration:underline}.dim{opacity:0.5}.a{fill:#000000}
]]>
</style>
<g transform="translate(0)">
<text x="48" y="25" class="a"  >Guard</text>
<text x="120" y="25" class="a"  >all</text>
<text x="168" y="25" class="b italic"  >#include</text>
<text x="276" y="25" class="a"  >pragmas</text>
<text x="372" y="25" class="a"  >with</text>
<text x="432" y="25" class="a"  >marker</text>
<text x="516" y="25" class="a"  >of</text>
<text x="552" y="25" class="a"  >the</text>
<text x="600" y="25" class="a"  >form</text>
<text x="660" y="25" class="b italic"  >int</text>
<text x="708" y="25" class="b italic"  >ABC</text>
<text x="744" y="25" class="a"  >;</text>
<text x="768" y="25" class="a"  >and</text>
<text x="816" y="25" class="a"  >comment</text>
<text x="48" y="50" class="a"  >out</text>
<text x="96" y="50" class="a"  >those</text>
<text x="168" y="50" class="a"  >pragmas</text>
<text x="264" y="50" class="a"  >as</text>
<text x="300" y="50" class="b italic"  >/*</text>
<text x="336" y="50" class="b italic"  >ABC#include...</text>
<text x="516" y="50" class="b italic"  >*/</text>
<text x="540" y="50" class="a"  >.</text>
<text x="564" y="50" class="b italic"  >ABC</text>
<text x="612" y="50" class="a"  >is</text>
<text x="648" y="50" class="a"  >some</text>
<text x="708" y="50" class="a"  >random</text>
<text x="792" y="50" class="a"  >integer.</text>
<text x="48" y="100" class="c"  >mid</text>
<text x="96" y="100" class="a"  >stage</text>
<text x="48" y="150" class="a"  >Process</text>
<text x="144" y="150" class="a"  >remaining</text>
<text x="264" y="150" class="a"  >directives</text>
<text x="396" y="150" class="a"  >with</text>
<text x="456" y="150" class="a"  >clang</text>
<text x="528" y="150" class="a"  >preprocessor</text>
<text x="684" y="150" class="a"  >with</text>
<text x="744" y="150" class="d bold"  >-C</text>
<text x="780" y="150" class="a"  >specified</text>
<text x="48" y="175" class="a"  >by</text>
<text x="84" y="175" class="a"  >default</text>
<text x="180" y="175" class="a"  >(see</text>
<text x="240" y="175" class="d bold"  >-K</text>
<text x="264" y="175" class="a"  >,</text>
<text x="276" y="175" class="e bold"  >--keep</text>
<text x="360" y="175" class="a"  >option)</text>
<text x="456" y="175" class="a"  >to</text>
<text x="492" y="175" class="a"  >retain</text>
<text x="576" y="175" class="a"  >comments</text>
<text x="684" y="175" class="a"  >and</text>
<text x="732" y="175" class="d bold"  >-P</text>
<text x="48" y="200" class="a"  >to</text>
<text x="84" y="200" class="a"  >not</text>
<text x="132" y="200" class="a"  >include</text>
<text x="228" y="200" class="a"  >a</text>
<text x="252" y="200" class="a"  >line</text>
<text x="312" y="200" class="a"  >markers</text>
<text x="408" y="200" class="a"  >at</text>
<text x="444" y="200" class="a"  >the</text>
<text x="492" y="200" class="a"  >beginning</text>
<text x="612" y="200" class="a"  >of</text>
<text x="648" y="200" class="a"  >the</text>
<text x="696" y="200" class="a"  >file.</text>
<text x="48" y="250" class="c"  >post</text>
<text x="108" y="250" class="a"  >stage</text>
<text x="48" y="300" class="a"  >Remove</text>
<text x="132" y="300" class="a"  >guarding</text>
<text x="240" y="300" class="a"  >markers</text>
<text x="336" y="300" class="a"  >and</text>
<text x="384" y="300" class="a"  >commented</text>
<text x="504" y="300" class="a"  >directives</text>
<text x="636" y="300" class="a"  >which</text>
<text x="708" y="300" class="a"  >do</text>
<text x="744" y="300" class="a"  >not</text>
<text x="792" y="300" class="a"  >have</text>
<text x="852" y="300" class="a"  >a</text>
<text x="48" y="325" class="a"  >guard</text>
<text x="120" y="325" class="a"  >anymore</text>
<text x="216" y="325" class="a"  >since</text>
<text x="288" y="325" class="a"  >clang</text>
<text x="360" y="325" class="a"  >preprocessor</text>
<text x="516" y="325" class="a"  >has</text>
<text x="564" y="325" class="a"  >removed</text>
<text x="660" y="325" class="a"  >the</text>
<text x="708" y="325" class="a"  >range</text>
<text x="780" y="325" class="a"  >of</text>
<text x="816" y="325" class="a"  >lines,</text>
<text x="48" y="350" class="a"  >because</text>
<text x="144" y="350" class="a"  >of</text>
<text x="180" y="350" class="a"  >not</text>
<text x="228" y="350" class="a"  >satisfied</text>
<text x="348" y="350" class="b italic"  >#ifdef</text>
<text x="420" y="350" class="a"  >/</text>
<text x="432" y="350" class="b italic"  >#ifndef</text>
<text x="528" y="350" class="a"  >pragmas</text>
<text x="624" y="350" class="a"  >around</text>
<text x="708" y="350" class="a"  >the</text>
<text x="756" y="350" class="a"  >marker.</text>
<text x="0" y="425" class="f bold"  >options:</text>
<text x="24" y="450" class="d bold"  >-h</text>
<text x="48" y="450" class="a"  >,</text>
<text x="72" y="450" class="e bold"  >--help</text>
<text x="288" y="450" class="a"  >show</text>
<text x="348" y="450" class="a"  >this</text>
<text x="408" y="450" class="a"  >help</text>
<text x="468" y="450" class="a"  >message</text>
<text x="564" y="450" class="a"  >and</text>
<text x="612" y="450" class="a"  >exit</text>
<text x="24" y="475" class="d bold"  >-v</text>
<text x="48" y="475" class="a"  >,</text>
<text x="72" y="475" class="e bold"  >--version</text>
<text x="288" y="475" class="a"  >show</text>
<text x="348" y="475" class="a"  >program&#39;s</text>
<text x="468" y="475" class="a"  >version</text>
<text x="564" y="475" class="a"  >number</text>
<text x="648" y="475" class="a"  >and</text>
<text x="696" y="475" class="a"  >exit</text>
<text x="0" y="525" class="f bold"  >input</text>
<text x="72" y="525" class="f bold"  >and</text>
<text x="120" y="525" class="f bold"  >output</text>
<text x="204" y="525" class="f bold"  >files:</text>
<text x="24" y="550" class="d bold"  >-i</text>
<text x="48" y="550" class="a"  >,</text>
<text x="72" y="550" class="e bold"  >--input</text>
<text x="168" y="550" class="g bold"  >IN</text>
<text x="204" y="550" class="g bold"  >[IN</text>
<text x="252" y="550" class="g bold"  >...]</text>
<text x="288" y="575" class="a"  >input</text>
<text x="360" y="575" class="a"  >file</text>
<text x="420" y="575" class="a"  >path(s),</text>
<text x="528" y="575" class="a"  >use</text>
<text x="576" y="575" class="c"  >-</text>
<text x="600" y="575" class="a"  >to</text>
<text x="636" y="575" class="a"  >read</text>
<text x="696" y="575" class="a"  >from</text>
<text x="756" y="575" class="a"  >stdin;</text>
<text x="288" y="600" class="a"  >prepend</text>
<text x="384" y="600" class="a"  >with</text>
<text x="444" y="600" class="c"  >@</text>
<text x="468" y="600" class="a"  >to</text>
<text x="504" y="600" class="a"  >treat</text>
<text x="576" y="600" class="a"  >as</text>
<text x="612" y="600" class="a"  >file</text>
<text x="672" y="600" class="a"  >to</text>
<text x="708" y="600" class="a"  >read</text>
<text x="768" y="600" class="a"  >input</text>
<text x="288" y="625" class="a"  >file</text>
<text x="348" y="625" class="a"  >paths</text>
<text x="420" y="625" class="a"  >from</text>
<text x="480" y="625" class="a"  >(one</text>
<text x="540" y="625" class="a"  >per-line)</text>
<text x="660" y="625" class="a"  >(default:</text>
<text x="780" y="625" class="a"  >[/dev/stdin])</text>
<text x="24" y="650" class="d bold"  >OUT</text>
<text x="288" y="650" class="a"  >output</text>
<text x="372" y="650" class="a"  >file</text>
<text x="432" y="650" class="a"  >path,</text>
<text x="504" y="650" class="a"  >use</text>
<text x="552" y="650" class="c"  >-</text>
<text x="576" y="650" class="a"  >to</text>
<text x="612" y="650" class="a"  >output</text>
<text x="696" y="650" class="a"  >to</text>
<text x="732" y="650" class="a"  >stdout;</text>
<text x="288" y="675" class="a"  >prepend</text>
<text x="384" y="675" class="a"  >with</text>
<text x="444" y="675" class="c"  >@</text>
<text x="468" y="675" class="a"  >to</text>
<text x="504" y="675" class="a"  >treat</text>
<text x="576" y="675" class="a"  >as</text>
<text x="612" y="675" class="a"  >file</text>
<text x="672" y="675" class="a"  >to</text>
<text x="708" y="675" class="a"  >read</text>
<text x="288" y="700" class="a"  >output</text>
<text x="372" y="700" class="a"  >file</text>
<text x="432" y="700" class="a"  >paths</text>
<text x="504" y="700" class="a"  >from</text>
<text x="564" y="700" class="a"  >(one</text>
<text x="624" y="700" class="a"  >per-line)</text>
<text x="744" y="700" class="a"  >(default:</text>
<text x="288" y="725" class="a"  >[/dev/stdout])</text>
<text x="24" y="750" class="d bold"  >-q</text>
<text x="48" y="750" class="a"  >,</text>
<text x="72" y="750" class="e bold"  >--queue</text>
<text x="168" y="750" class="g bold"  >SIZE</text>
<text x="288" y="750" class="a"  >line</text>
<text x="348" y="750" class="a"  >queue</text>
<text x="420" y="750" class="a"  >size</text>
<text x="480" y="750" class="a"  >limit</text>
<text x="552" y="750" class="a"  >for</text>
<text x="600" y="750" class="a"  >communicating</text>
<text x="768" y="750" class="a"  >with</text>
<text x="288" y="775" class="a bold italic"  >clang</text>
<text x="348" y="775" class="a"  >;</text>
<text x="372" y="775" class="a"  >value</text>
<text x="444" y="775" class="a"  >&lt;=</text>
<text x="480" y="775" class="a"  >0</text>
<text x="504" y="775" class="a"  >makes</text>
<text x="576" y="775" class="a"  >queue</text>
<text x="648" y="775" class="a"  >size</text>
<text x="288" y="800" class="a"  >unbound</text>
<text x="384" y="800" class="a"  >(default:</text>
<text x="504" y="800" class="a"  >0)</text>
<text x="24" y="825" class="d bold"  >-P</text>
<text x="48" y="825" class="a"  >,</text>
<text x="72" y="825" class="e bold"  >--poll</text>
<text x="156" y="825" class="g bold"  >SEC</text>
<text x="288" y="825" class="a"  >period</text>
<text x="372" y="825" class="a"  >for</text>
<text x="420" y="825" class="a"  >polling</text>
<text x="516" y="825" class="a"  >each</text>
<text x="576" y="825" class="a"  >io</text>
<text x="612" y="825" class="a"  >thread</text>
<text x="696" y="825" class="a"  >until</text>
<text x="768" y="825" class="a"  >it</text>
<text x="804" y="825" class="a"  >finished</text>
<text x="288" y="850" class="a"  >their</text>
<text x="360" y="850" class="a"  >work</text>
<text x="420" y="850" class="a"  >(default:</text>
<text x="540" y="850" class="a"  >1.0)</text>
<text x="24" y="875" class="d bold"  >-U</text>
<text x="48" y="875" class="a"  >,</text>
<text x="72" y="875" class="e bold"  >--timeout</text>
<text x="192" y="875" class="g bold"  >SEC</text>
<text x="288" y="875" class="a"  >time</text>
<text x="348" y="875" class="a"  >to</text>
<text x="384" y="875" class="a"  >wait</text>
<text x="444" y="875" class="a"  >until</text>
<text x="516" y="875" class="a bold italic"  >clang</text>
<text x="588" y="875" class="a"  >finished</text>
<text x="288" y="900" class="a"  >their</text>
<text x="360" y="900" class="a"  >work</text>
<text x="420" y="900" class="a"  >(default:</text>
<text x="540" y="900" class="a"  >1.0)</text>
<text x="0" y="950" class="f bold"  >selecting</text>
<text x="120" y="950" class="f bold"  >stages:</text>
<text x="24" y="975" class="d bold"  >-s</text>
<text x="48" y="975" class="a"  >,</text>
<text x="72" y="975" class="e bold"  >--stage</text>
<text x="168" y="975" class="g bold"  >{pre,mid,post,all,none}</text>
<text x="456" y="975" class="g bold"  >[{pre,mid,post,all,none}</text>
<text x="756" y="975" class="g bold"  >...]</text>
<text x="288" y="1000" class="a"  >what</text>
<text x="348" y="1000" class="a"  >stages</text>
<text x="432" y="1000" class="a"  >to</text>
<text x="468" y="1000" class="a"  >run;</text>
<text x="528" y="1000" class="c"  >all</text>
<text x="576" y="1000" class="a"  >overrides</text>
<text x="696" y="1000" class="a"  >separate</text>
<text x="288" y="1025" class="a"  >stages;</text>
<text x="384" y="1025" class="c"  >none</text>
<text x="444" y="1025" class="a"  >overrides</text>
<text x="564" y="1025" class="c"  >all</text>
<text x="612" y="1025" class="a"  >(default:</text>
<text x="288" y="1050" class="a"  >[pre,</text>
<text x="360" y="1050" class="a"  >mid,</text>
<text x="420" y="1050" class="a"  >post])</text>
<text x="24" y="1075" class="d bold"  >-S</text>
<text x="48" y="1075" class="a"  >,</text>
<text x="72" y="1075" class="e bold"  >--script</text>
<text x="180" y="1075" class="g bold"  >SCRIPT</text>
<text x="288" y="1075" class="a"  >run</text>
<text x="336" y="1075" class="a"  >shell</text>
<text x="408" y="1075" class="a"  >script</text>
<text x="492" y="1075" class="a"  >instead</text>
<text x="588" y="1075" class="a"  >of</text>
<text x="624" y="1075" class="a"  >the</text>
<text x="672" y="1075" class="a"  >default</text>
<text x="288" y="1100" class="a bold italic"  >clang</text>
<text x="360" y="1100" class="a"  >command</text>
<text x="456" y="1100" class="a"  >(see</text>
<text x="516" y="1100" class="f bold"  >NOTES</text>
<text x="576" y="1100" class="a"  >)</text>
<text x="288" y="1125" class="a"  >(default:</text>
<text x="408" y="1125" class="a"  >None)</text>
<text x="0" y="1175" class="f bold"  >selecting</text>
<text x="120" y="1175" class="f bold"  >lines:</text>
<text x="24" y="1200" class="d bold"  >-a</text>
<text x="48" y="1200" class="a"  >,</text>
<text x="72" y="1200" class="e bold"  >--pattern</text>
<text x="192" y="1200" class="g bold"  >PAT</text>
<text x="240" y="1200" class="g bold"  >[PAT</text>
<text x="300" y="1200" class="g bold"  >...]</text>
<text x="288" y="1225" class="a"  >patterns</text>
<text x="396" y="1225" class="a"  >to</text>
<text x="432" y="1225" class="a"  >consider</text>
<text x="540" y="1225" class="a"  >line</text>
<text x="600" y="1225" class="a"  >a</text>
<text x="624" y="1225" class="a"  >pragma</text>
<text x="708" y="1225" class="a"  >to</text>
<text x="744" y="1225" class="a"  >guard</text>
<text x="816" y="1225" class="a"  >(default:</text>
<text x="288" y="1250" class="a"  >guard</text>
<text x="360" y="1250" class="b italic"  >#include</text>
<text x="456" y="1250" class="a"  >-s)</text>
<text x="504" y="1250" class="a"  >(default:</text>
<text x="624" y="1250" class="a"  >[&#39;#[</text>
<text x="288" y="1275" class="a"  >\\t]*include[</text>
<text x="456" y="1275" class="a"  >\\t]+.*&#39;])</text>
<text x="24" y="1300" class="d bold"  >-r</text>
<text x="48" y="1300" class="a"  >,</text>
<text x="72" y="1300" class="e bold"  >--range</text>
<text x="168" y="1300" class="g bold"  >RANGE</text>
<text x="240" y="1300" class="g bold"  >[RANGE</text>
<text x="324" y="1300" class="g bold"  >...]</text>
<text x="288" y="1325" class="a"  >process</text>
<text x="384" y="1325" class="a"  >only</text>
<text x="444" y="1325" class="a"  >specified</text>
<text x="564" y="1325" class="a"  >line</text>
<text x="624" y="1325" class="a"  >range(s);</text>
<text x="744" y="1325" class="a"  >-1</text>
<text x="780" y="1325" class="a"  >at</text>
<text x="816" y="1325" class="a"  >upper</text>
<text x="288" y="1350" class="a"  >bound</text>
<text x="360" y="1350" class="a"  >means</text>
<text x="432" y="1350" class="a"  >&#34;to</text>
<text x="480" y="1350" class="a"  >the</text>
<text x="528" y="1350" class="a"  >end</text>
<text x="576" y="1350" class="a"  >of</text>
<text x="612" y="1350" class="a"  >file&#34;(default:</text>
<text x="792" y="1350" class="a"  >process</text>
<text x="288" y="1375" class="a"  >entire</text>
<text x="372" y="1375" class="a"  >file)</text>
<text x="444" y="1375" class="a"  >(default:</text>
<text x="564" y="1375" class="a"  >[&#39;0,-1&#39;])</text>
<text x="0" y="1425" class="f bold"  >compiler</text>
<text x="108" y="1425" class="f bold"  >settings:</text>
<text x="24" y="1450" class="d bold"  >-p</text>
<text x="48" y="1450" class="a"  >,</text>
<text x="72" y="1450" class="e bold"  >--path</text>
<text x="156" y="1450" class="g bold"  >EXEC</text>
<text x="288" y="1450" class="a"  >path</text>
<text x="348" y="1450" class="a"  >to</text>
<text x="384" y="1450" class="a bold italic"  >clang</text>
<text x="456" y="1450" class="a"  >compiler</text>
<text x="564" y="1450" class="a"  >(default:</text>
<text x="288" y="1475" class="a"  >search</text>
<text x="372" y="1475" class="a"  >in</text>
<text x="408" y="1475" class="b italic"  >$PATH</text>
<text x="468" y="1475" class="a"  >)</text>
<text x="492" y="1475" class="a"  >(default:</text>
<text x="612" y="1475" class="a"  >None)</text>
<text x="24" y="1500" class="d bold"  >-c</text>
<text x="48" y="1500" class="a"  >,</text>
<text x="72" y="1500" class="e bold"  >--clang</text>
<text x="168" y="1500" class="g bold"  >ARG</text>
<text x="288" y="1500" class="a"  >argument</text>
<text x="396" y="1500" class="a"  >forwarder</text>
<text x="516" y="1500" class="a"  >to</text>
<text x="552" y="1500" class="a bold italic"  >clang</text>
<text x="624" y="1500" class="a"  >(default:</text>
<text x="288" y="1525" class="a"  >None)</text>
<text x="24" y="1550" class="d bold"  >-I</text>
<text x="48" y="1550" class="a"  >,</text>
<text x="72" y="1550" class="e bold"  >--ibuff</text>
<text x="168" y="1550" class="g bold"  >{def,line,zero}</text>
<text x="288" y="1575" class="a"  >buffering</text>
<text x="408" y="1575" class="a"  >for</text>
<text x="456" y="1575" class="a bold italic"  >clang</text>
<text x="528" y="1575" class="a"  >process</text>
<text x="624" y="1575" class="a"  >stdin</text>
<text x="288" y="1600" class="a"  >(default:</text>
<text x="408" y="1600" class="a"  >def)</text>
<text x="24" y="1625" class="d bold"  >-O</text>
<text x="48" y="1625" class="a"  >,</text>
<text x="72" y="1625" class="e bold"  >--obuff</text>
<text x="168" y="1625" class="g bold"  >{def,line,zero}</text>
<text x="288" y="1650" class="a"  >buffering</text>
<text x="408" y="1650" class="a"  >for</text>
<text x="456" y="1650" class="a bold italic"  >clang</text>
<text x="528" y="1650" class="a"  >process</text>
<text x="624" y="1650" class="a"  >stdout</text>
<text x="288" y="1675" class="a"  >(default:</text>
<text x="408" y="1675" class="a"  >def)</text>
<text x="0" y="1725" class="f bold"  >preprocessor</text>
<text x="156" y="1725" class="f bold"  >behavior:</text>
<text x="24" y="1750" class="d bold"  >-D</text>
<text x="48" y="1750" class="a"  >,</text>
<text x="72" y="1750" class="e bold"  >--define</text>
<text x="180" y="1750" class="g bold"  >DEF</text>
<text x="288" y="1750" class="a bold italic"  >clang</text>
<text x="360" y="1750" class="a"  >preprocessor</text>
<text x="516" y="1750" class="a"  >definitions</text>
<text x="660" y="1750" class="a"  >(used</text>
<text x="288" y="1775" class="a"  >for</text>
<text x="336" y="1775" class="a"  >resolving</text>
<text x="288" y="1800" class="b italic"  >#ifdef</text>
<text x="360" y="1800" class="a"  >/</text>
<text x="372" y="1800" class="b italic"  >#ifndef</text>
<text x="456" y="1800" class="a"  >)</text>
<text x="288" y="1825" class="a"  >(default:</text>
<text x="408" y="1825" class="a"  >None)</text>
<text x="24" y="1850" class="d bold"  >-K</text>
<text x="48" y="1850" class="a"  >,</text>
<text x="72" y="1850" class="e bold"  >--keep</text>
<text x="144" y="1850" class="a"  >,</text>
<text x="168" y="1850" class="e bold"  >--no-keep</text>
<text x="288" y="1875" class="a"  >whether</text>
<text x="384" y="1875" class="a"  >to</text>
<text x="420" y="1875" class="a"  >add</text>
<text x="468" y="1875" class="d bold"  >-C</text>
<text x="504" y="1875" class="a"  >option</text>
<text x="588" y="1875" class="a"  >to</text>
<text x="288" y="1900" class="a bold italic"  >clang</text>
<text x="360" y="1900" class="a"  >preprocessor;</text>
<text x="528" y="1900" class="a"  >passing</text>
<text x="288" y="1925" class="e bold"  >--no-keep</text>
<text x="408" y="1925" class="a"  >will</text>
<text x="468" y="1925" class="a"  >result</text>
<text x="552" y="1925" class="a"  >in</text>
<text x="588" y="1925" class="a"  >all</text>
<text x="288" y="1950" class="b italic"  >#include</text>
<text x="384" y="1950" class="a"  >s</text>
<text x="408" y="1950" class="a"  >deleted</text>
<text x="504" y="1950" class="a"  >(default:</text>
<text x="624" y="1950" class="a"  >True)</text>
<text x="0" y="2000" class="f bold"  >logging:</text>
<text x="24" y="2025" class="d bold"  >-l</text>
<text x="48" y="2025" class="a"  >,</text>
<text x="72" y="2025" class="e bold"  >--log</text>
<text x="144" y="2025" class="g bold"  >LEVEL</text>
<text x="288" y="2025" class="a"  >minimal</text>
<text x="384" y="2025" class="a"  >log</text>
<text x="432" y="2025" class="a"  >level</text>
<text x="504" y="2025" class="a"  >to</text>
<text x="540" y="2025" class="a"  >output</text>
<text x="624" y="2025" class="a"  >(default:</text>
<text x="744" y="2025" class="a"  >30)</text>
<text x="24" y="2050" class="d bold"  >-W</text>
<text x="48" y="2050" class="a"  >,</text>
<text x="72" y="2050" class="e bold"  >--width</text>
<text x="168" y="2050" class="g bold"  >WIDTH</text>
<text x="288" y="2050" class="a"  >assume</text>
<text x="372" y="2050" class="a"  >terminal</text>
<text x="480" y="2050" class="a"  >has</text>
<text x="528" y="2050" class="a"  >provided</text>
<text x="636" y="2050" class="a"  >width;</text>
<text x="720" y="2050" class="c"  >0</text>
<text x="744" y="2050" class="a"  >will</text>
<text x="288" y="2075" class="a"  >get</text>
<text x="336" y="2075" class="a"  >width</text>
<text x="408" y="2075" class="a"  >from</text>
<text x="468" y="2075" class="a"  >terminal,</text>
<text x="588" y="2075" class="a"  >while</text>
<text x="660" y="2075" class="c"  >-1</text>
<text x="696" y="2075" class="a"  >will</text>
<text x="288" y="2100" class="a"  >disable</text>
<text x="384" y="2100" class="a"  >truncation</text>
<text x="516" y="2100" class="a"  >(default:</text>
<text x="636" y="2100" class="a"  >0)</text>
<text x="24" y="2125" class="d bold"  >-C</text>
<text x="48" y="2125" class="a"  >,</text>
<text x="72" y="2125" class="e bold"  >--color</text>
<text x="168" y="2125" class="g bold"  >WHEN</text>
<text x="288" y="2125" class="a"  >when</text>
<text x="348" y="2125" class="a"  >color</text>
<text x="420" y="2125" class="a"  >the</text>
<text x="468" y="2125" class="a"  >logs</text>
<text x="528" y="2125" class="a"  >(default:</text>
<text x="648" y="2125" class="a"  >auto)</text>
<text x="24" y="2175" class="d bold"  >-t</text>
<text x="48" y="2175" class="a"  >,</text>
<text x="72" y="2175" class="e bold"  >--test</text>
<text x="288" y="2175" class="a"  >discard</text>
<text x="384" y="2175" class="a"  >all</text>
<text x="432" y="2175" class="a"  >output</text>
<text x="516" y="2175" class="a"  >to</text>
<text x="552" y="2175" class="b italic"  >/dev/null</text>
<text x="288" y="2200" class="a"  >(default:</text>
<text x="408" y="2200" class="a"  >False)</text>
<text x="24" y="2225" class="d bold"  >-T</text>
<text x="48" y="2225" class="a"  >,</text>
<text x="72" y="2225" class="e bold"  >--time</text>
<text x="288" y="2225" class="a"  >measure</text>
<text x="384" y="2225" class="a"  >the</text>
<text x="432" y="2225" class="a"  >execution</text>
<text x="552" y="2225" class="a"  >time</text>
<text x="612" y="2225" class="a"  >using</text>
<text x="288" y="2250" class="b italic"  >timeit</text>
<text x="372" y="2250" class="a"  >module</text>
<text x="456" y="2250" class="a"  >(default:</text>
<text x="576" y="2250" class="a"  >False)</text>
<text x="24" y="2275" class="d bold"  >-M</text>
<text x="48" y="2275" class="a"  >,</text>
<text x="72" y="2275" class="e bold"  >--mem</text>
<text x="288" y="2275" class="a"  >print</text>
<text x="360" y="2275" class="a"  >the</text>
<text x="408" y="2275" class="a"  >memory</text>
<text x="492" y="2275" class="a"  >footprint</text>
<text x="612" y="2275" class="a"  >captured</text>
<text x="720" y="2275" class="a"  >using</text>
<text x="288" y="2300" class="b italic"  >tracemalloc</text>
<text x="432" y="2300" class="a"  >module</text>
<text x="516" y="2300" class="a"  >using</text>
<text x="588" y="2300" class="a"  >(default:</text>
<text x="288" y="2325" class="a"  >False)</text>
<text x="24" y="2350" class="d bold"  >-F</text>
<text x="48" y="2350" class="a"  >,</text>
<text x="72" y="2350" class="e bold"  >--filter</text>
<text x="180" y="2350" class="g bold"  >{self,sub}</text>
<text x="312" y="2350" class="g bold"  >[{self,sub}</text>
<text x="456" y="2350" class="g bold"  >...]</text>
<text x="288" y="2375" class="a"  >filter</text>
<text x="372" y="2375" class="a"  >out</text>
<text x="420" y="2375" class="b italic"  >tracemalloc</text>
<text x="564" y="2375" class="a"  >results</text>
<text x="288" y="2400" class="a"  >(default:</text>
<text x="408" y="2400" class="a"  >None)</text>
<text x="0" y="2450" class="f bold"  >ENVIRONMENT</text>
<text x="48" y="2475" class="a bold underline"  >TOOL_LOG_LEVEL</text>
<text x="228" y="2475" class="a"  >setting</text>
<text x="324" y="2475" class="a"  >this</text>
<text x="384" y="2475" class="a"  >takes</text>
<text x="456" y="2475" class="a"  >precedence</text>
<text x="588" y="2475" class="a"  >over</text>
<text x="648" y="2475" class="d bold"  >-l</text>
<text x="672" y="2475" class="a"  >,</text>
<text x="684" y="2475" class="e bold"  >--log</text>
<text x="756" y="2475" class="a"  >option;</text>
<text x="852" y="2475" class="a"  >see</text>
<text x="48" y="2500" class="a"  >option</text>
<text x="132" y="2500" class="a"  >description</text>
<text x="276" y="2500" class="a"  >for</text>
<text x="324" y="2500" class="a"  >the</text>
<text x="372" y="2500" class="a"  >list</text>
<text x="432" y="2500" class="a"  >of</text>
<text x="468" y="2500" class="a"  >possible</text>
<text x="576" y="2500" class="a"  >values;</text>
<text x="672" y="2500" class="a"  >set</text>
<text x="720" y="2500" class="a"  >but</text>
<text x="768" y="2500" class="a"  >empty</text>
<text x="840" y="2500" class="a"  >equals</text>
<text x="48" y="2525" class="a"  >setting</text>
<text x="144" y="2525" class="a"  >&#39;DEBUG&#39;.</text>
<text x="48" y="2575" class="a bold underline"  >TOOL_COLOR</text>
<text x="180" y="2575" class="a"  >setting</text>
<text x="276" y="2575" class="a"  >this</text>
<text x="336" y="2575" class="a"  >takes</text>
<text x="408" y="2575" class="a"  >precedence</text>
<text x="540" y="2575" class="a"  >over</text>
<text x="600" y="2575" class="d bold"  >-c</text>
<text x="624" y="2575" class="a"  >,</text>
<text x="636" y="2575" class="e bold"  >--color</text>
<text x="732" y="2575" class="a"  >option;</text>
<text x="828" y="2575" class="a"  >see</text>
<text x="48" y="2600" class="a"  >option</text>
<text x="132" y="2600" class="a"  >description</text>
<text x="276" y="2600" class="a"  >for</text>
<text x="324" y="2600" class="a"  >the</text>
<text x="372" y="2600" class="a"  >list</text>
<text x="432" y="2600" class="a"  >of</text>
<text x="468" y="2600" class="a"  >possible</text>
<text x="576" y="2600" class="a"  >values;</text>
<text x="672" y="2600" class="a"  >set</text>
<text x="720" y="2600" class="a"  >but</text>
<text x="768" y="2600" class="a"  >empt</text>
<text x="828" y="2600" class="a"  >equals</text>
<text x="48" y="2625" class="a"  >setting</text>
<text x="144" y="2625" class="a"  >&#39;never&#39;.</text>
<text x="252" y="2625" class="a"  >Note</text>
<text x="312" y="2625" class="a"  >that</text>
<text x="372" y="2625" class="a"  >setting</text>
<text x="468" y="2625" class="a"  >this</text>
<text x="528" y="2625" class="a"  >or</text>
<text x="564" y="2625" class="a"  >option</text>
<text x="648" y="2625" class="a"  >does</text>
<text x="708" y="2625" class="a"  >not</text>
<text x="756" y="2625" class="a"  >affect</text>
<text x="840" y="2625" class="a"  >the</text>
<text x="48" y="2650" class="a"  >colorization</text>
<text x="204" y="2650" class="a"  >of</text>
<text x="240" y="2650" class="a"  >the</text>
<text x="288" y="2650" class="a"  >help</text>
<text x="348" y="2650" class="a"  >text.</text>
<text x="420" y="2650" class="a"  >It</text>
<text x="456" y="2650" class="a"  >is</text>
<text x="492" y="2650" class="a"  >fixed</text>
<text x="564" y="2650" class="a"  >to</text>
<text x="600" y="2650" class="a"  >&#39;auto&#39;.</text>
<text x="48" y="2700" class="a bold underline"  >TOOL_TRUNCATE</text>
<text x="216" y="2700" class="a"  >setting</text>
<text x="312" y="2700" class="a"  >this</text>
<text x="372" y="2700" class="a"  >takes</text>
<text x="444" y="2700" class="a"  >precedence</text>
<text x="576" y="2700" class="a"  >over</text>
<text x="636" y="2700" class="d bold"  >-E</text>
<text x="660" y="2700" class="a"  >,</text>
<text x="672" y="2700" class="e bold"  >--truncate</text>
<text x="804" y="2700" class="a"  >option;</text>
<text x="900" y="2700" class="a"  >see</text>
<text x="48" y="2725" class="a"  >option</text>
<text x="132" y="2725" class="a"  >description</text>
<text x="276" y="2725" class="a"  >for</text>
<text x="324" y="2725" class="a"  >the</text>
<text x="372" y="2725" class="a"  >list</text>
<text x="432" y="2725" class="a"  >of</text>
<text x="468" y="2725" class="a"  >possible</text>
<text x="576" y="2725" class="a"  >values;</text>
<text x="672" y="2725" class="a"  >set</text>
<text x="720" y="2725" class="a"  >but</text>
<text x="768" y="2725" class="a"  >empty</text>
<text x="840" y="2725" class="a"  >equals</text>
<text x="48" y="2750" class="a"  >setting</text>
<text x="144" y="2750" class="a"  >&#39;never&#39;.</text>
<text x="0" y="2800" class="f bold"  >NOTES</text>
<text x="48" y="2825" class="a"  >The</text>
<text x="96" y="2825" class="a"  >default</text>
<text x="192" y="2825" class="a bold italic"  >clang</text>
<text x="264" y="2825" class="a"  >command</text>
<text x="360" y="2825" class="a"  >is</text>
<text x="396" y="2825" class="b italic"  >clang</text>
<text x="468" y="2825" class="b italic"  >-E</text>
<text x="504" y="2825" class="b italic"  >-P</text>
<text x="540" y="2825" class="b italic"  >-C</text>
<text x="576" y="2825" class="b italic"  >-o</text>
<text x="612" y="2825" class="b italic"  >-</text>
<text x="636" y="2825" class="b italic"  >-</text>
<text x="648" y="2825" class="a"  >.</text>
<text x="672" y="2825" class="a"  >See</text>
<text x="720" y="2825" class="a"  >also</text>
<text x="780" y="2825" class="d bold"  >-I</text>
<text x="804" y="2825" class="a"  >,</text>
<text x="828" y="2825" class="d bold"  >-O</text>
<text x="852" y="2825" class="a"  >,</text>
<text x="876" y="2825" class="d bold"  >-D</text>
<text x="912" y="2825" class="a"  >and</text>
<text x="48" y="2850" class="d bold"  >-S</text>
<text x="84" y="2850" class="a"  >options&#39;</text>
<text x="192" y="2850" class="a"  >description.</text>
<text x="48" y="2900" class="d bold"  >-E</text>
<text x="72" y="2900" class="a"  >,</text>
<text x="84" y="2900" class="e bold"  >--time</text>
<text x="168" y="2900" class="a"  >and</text>
<text x="216" y="2900" class="d bold"  >-M</text>
<text x="240" y="2900" class="e bold"  >--mem</text>
<text x="312" y="2900" class="a"  >flags</text>
<text x="384" y="2900" class="a"  >require</text>
<text x="480" y="2900" class="a"  >at</text>
<text x="516" y="2900" class="a"  >least</text>
<text x="588" y="2900" class="c"  >WARNING</text>
<text x="684" y="2900" class="a"  >(default)</text>
<text x="804" y="2900" class="a"  >log</text>
<text x="852" y="2900" class="a"  >level.</text>
<text x="48" y="2925" class="a"  >The</text>
<text x="96" y="2925" class="a"  >time</text>
<text x="156" y="2925" class="a"  >and</text>
<text x="204" y="2925" class="a"  >memory</text>
<text x="288" y="2925" class="a"  >profiling</text>
<text x="408" y="2925" class="a"  >result</text>
<text x="492" y="2925" class="a"  >are</text>
<text x="540" y="2925" class="a"  >printed</text>
<text x="636" y="2925" class="a"  >as</text>
<text x="672" y="2925" class="a"  >warning</text>
<text x="768" y="2925" class="a"  >messages.</text>
<text x="888" y="2925" class="a"  >This</text>
<text x="48" y="2950" class="a"  >is</text>
<text x="84" y="2950" class="a"  >expected</text>
<text x="192" y="2950" class="a"  >when</text>
<text x="252" y="2950" class="a"  >this</text>
<text x="312" y="2950" class="a"  >flags</text>
<text x="384" y="2950" class="a"  >are</text>
<text x="432" y="2950" class="a"  >present.</text>
<text x="48" y="3000" class="a"  >By</text>
<text x="84" y="3000" class="a"  >default</text>
<text x="180" y="3000" class="a"  >the</text>
<text x="228" y="3000" class="a"  >first</text>
<text x="300" y="3000" class="a bold italic"  >clang</text>
<text x="372" y="3000" class="a"  >found</text>
<text x="444" y="3000" class="a"  >in</text>
<text x="480" y="3000" class="b italic"  >$PATH</text>
<text x="552" y="3000" class="a"  >is</text>
<text x="588" y="3000" class="a"  >used.</text>
<text x="660" y="3000" class="a"  >Also</text>
<text x="720" y="3000" class="a"  >see</text>
<text x="768" y="3000" class="d bold"  >-p</text>
<text x="792" y="3000" class="a"  >,</text>
<text x="804" y="3000" class="e bold"  >--path</text>
<text x="48" y="3025" class="a"  >option.</text>
<text x="48" y="3075" class="d bold"  >-I</text>
<text x="72" y="3075" class="a"  >,</text>
<text x="84" y="3075" class="e bold"  >--ibuff</text>
<text x="180" y="3075" class="a"  >and</text>
<text x="228" y="3075" class="d bold"  >-O</text>
<text x="252" y="3075" class="e bold"  >,--outbuf</text>
<text x="372" y="3075" class="a"  >options</text>
<text x="468" y="3075" class="a"  >require</text>
<text x="564" y="3075" class="a bold italic"  >stdbuf</text>
<text x="648" y="3075" class="a"  >executable</text>
<text x="780" y="3075" class="a"  >to</text>
<text x="816" y="3075" class="a"  >be</text>
<text x="852" y="3075" class="a"  >in</text>
<text x="888" y="3075" class="b italic"  >$PATH</text>
<text x="948" y="3075" class="a" >.</text>
<text x="48" y="3125" class="a"  >Providing</text>
<text x="168" y="3125" class="a"  >negative</text>
<text x="276" y="3125" class="a"  >argument</text>
<text x="384" y="3125" class="a"  >to</text>
<text x="420" y="3125" class="d bold"  >-W</text>
<text x="444" y="3125" class="a"  >,</text>
<text x="456" y="3125" class="e bold"  >--width</text>
<text x="552" y="3125" class="a"  >other</text>
<text x="624" y="3125" class="a"  >than</text>
<text x="684" y="3125" class="a"  >-1</text>
<text x="720" y="3125" class="a"  >rusults</text>
<text x="816" y="3125" class="a"  >in</text>
<text x="852" y="3125" class="a"  >left</text>
<text x="912" y="3125" class="a" >trun</text>
<text x="0" y="3150" class="a"  >cation</text>
<text x="48" y="3175" class="a"  >on</text>
<text x="84" y="3175" class="a"  >that</text>
<text x="144" y="3175" class="a"  >width&#39;s</text>
<text x="240" y="3175" class="a"  >absolute</text>
<text x="348" y="3175" class="a"  >value.</text>
<text x="48" y="3225" class="a"  >There</text>
<text x="120" y="3225" class="a"  >is</text>
<text x="156" y="3225" class="d bold"  >-i</text>
<text x="192" y="3225" class="a"  >instead</text>
<text x="288" y="3225" class="a"  >of</text>
<text x="324" y="3225" class="d bold"  >-o</text>
<text x="360" y="3225" class="a"  >option</text>
<text x="444" y="3225" class="a"  >since</text>
<text x="516" y="3225" class="a bold italic"  >argparse</text>
<text x="624" y="3225" class="a"  >module</text>
<text x="708" y="3225" class="a"  >evaluates</text>
<text x="48" y="3250" class="a"  >positional</text>
<text x="180" y="3250" class="a"  >arguments</text>
<text x="300" y="3250" class="a"  >last,</text>
<text x="372" y="3250" class="a"  >while</text>
<text x="444" y="3250" class="a"  >the</text>
<text x="492" y="3250" class="a"  >number</text>
<text x="576" y="3250" class="a"  >of</text>
<text x="612" y="3250" class="a"  >inputs</text>
<text x="696" y="3250" class="a"  >should</text>
<text x="780" y="3250" class="a"  >be</text>
<text x="816" y="3250" class="a"  >known</text>
<text x="888" y="3250" class="a"  >at</text>
<text x="924" y="3250" class="a" >the</text>
<text x="12" y="3275" class="a"  >time</text>
<text x="72" y="3275" class="a"  >of</text>
<text x="48" y="3300" class="a"  >preparing</text>
<text x="168" y="3300" class="a"  >outputs</text>
<text x="264" y="3300" class="a"  >by</text>
<text x="300" y="3300" class="a"  >design.</text>
<text x="0" y="3350" class="f bold"  >CAVEATS</text>
<text x="48" y="3375" class="a"  >The</text>
<text x="96" y="3375" class="a"  >script</text>
<text x="180" y="3375" class="a"  >processes</text>
<text x="300" y="3375" class="a"  >input</text>
<text x="372" y="3375" class="a"  >files</text>
<text x="444" y="3375" class="a"  >into</text>
<text x="504" y="3375" class="a"  >output</text>
<text x="588" y="3375" class="a"  >files</text>
<text x="660" y="3375" class="a"  >in</text>
<text x="696" y="3375" class="a"  >pairs.</text>
<text x="780" y="3375" class="a"  >If</text>
<text x="816" y="3375" class="a"  >the</text>
<text x="864" y="3375" class="a"  >number</text>
<text x="48" y="3400" class="a"  >of</text>
<text x="84" y="3400" class="a"  >input</text>
<text x="156" y="3400" class="a"  >and</text>
<text x="204" y="3400" class="a"  >output</text>
<text x="288" y="3400" class="a"  >files</text>
<text x="360" y="3400" class="a"  >deffer,</text>
<text x="456" y="3400" class="a"  >the</text>
<text x="504" y="3400" class="a"  >script</text>
<text x="588" y="3400" class="a"  >will</text>
<text x="648" y="3400" class="a"  >stop</text>
<text x="708" y="3400" class="a"  >when</text>
<text x="768" y="3400" class="a"  >the</text>
<text x="816" y="3400" class="a"  >shortest</text>
<text x="48" y="3425" class="a"  >sequence</text>
<text x="156" y="3425" class="a"  >is</text>
<text x="192" y="3425" class="a"  >exhausted.</text>
<text x="48" y="3475" class="a"  >The</text>
<text x="96" y="3475" class="a"  >exception</text>
<text x="216" y="3475" class="a"  >is</text>
<text x="252" y="3475" class="a"  >no</text>
<text x="288" y="3475" class="a"  >output</text>
<text x="372" y="3475" class="a"  >specified;</text>
<text x="504" y="3475" class="a"  >in</text>
<text x="540" y="3475" class="a"  >this</text>
<text x="600" y="3475" class="a"  >case</text>
<text x="660" y="3475" class="a"  >the</text>
<text x="708" y="3475" class="a"  >resulting</text>
<text x="828" y="3475" class="a"  >lines</text>
<text x="48" y="3500" class="a"  >are</text>
<text x="96" y="3500" class="a"  >concatenated</text>
<text x="252" y="3500" class="a"  >into</text>
<text x="312" y="3500" class="a"  >stdout.</text>
<text x="408" y="3500" class="a"  >This</text>
<text x="468" y="3500" class="a"  >is</text>
<text x="504" y="3500" class="a"  >to</text>
<text x="540" y="3500" class="a"  >assist</text>
<text x="624" y="3500" class="a"  >testing</text>
<text x="720" y="3500" class="a"  >a</text>
<text x="744" y="3500" class="a"  >simple</text>
<text x="48" y="3525" class="a"  >configurations.</text>
<text x="240" y="3525" class="a"  >See</text>
<text x="288" y="3525" class="d bold"  >-t</text>
<text x="324" y="3525" class="a"  >flag.</text>
<text x="48" y="3575" class="a"  >Each</text>
<text x="108" y="3575" class="a"  >pair</text>
<text x="168" y="3575" class="a"  >is</text>
<text x="204" y="3575" class="a"  >processed</text>
<text x="324" y="3575" class="a"  >concurrently,</text>
<text x="492" y="3575" class="a"  >so</text>
<text x="528" y="3575" class="a"  >repeated</text>
<text x="636" y="3575" class="a"  >output</text>
<text x="720" y="3575" class="a"  >file</text>
<text x="780" y="3575" class="a"  >arguments</text>
<text x="900" y="3575" class="a"  >will</text>
<text x="48" y="3600" class="a"  >cause</text>
<text x="120" y="3600" class="a"  >the</text>
<text x="168" y="3600" class="a"  >arbitrary</text>
<text x="288" y="3600" class="a"  >ordering</text>
<text x="396" y="3600" class="a"  >of</text>
<text x="432" y="3600" class="a"  >lines</text>
<text x="504" y="3600" class="a"  >inside</text>
<text x="588" y="3600" class="a"  >those</text>
<text x="660" y="3600" class="a"  >output</text>
<text x="744" y="3600" class="a"  >file.</text>
<text x="816" y="3600" class="a"  >The</text>
<text x="864" y="3600" class="a" >ordering</text>
<text x="48" y="3625" class="a"  >is</text>
<text x="84" y="3625" class="a"  >not</text>
<text x="132" y="3625" class="a"  >deterministic,</text>
<text x="312" y="3625" class="a"  >that</text>
<text x="372" y="3625" class="a"  >is</text>
<text x="408" y="3625" class="a"  >each</text>
<text x="468" y="3625" class="a"  >run</text>
<text x="516" y="3625" class="a"  >likely</text>
<text x="600" y="3625" class="a"  >to</text>
<text x="636" y="3625" class="a"  >produce</text>
<text x="732" y="3625" class="a"  >the</text>
<text x="780" y="3625" class="a"  >new</text>
<text x="828" y="3625" class="a" >permutation</text>
<text x="48" y="3650" class="a"  >of</text>
<text x="84" y="3650" class="a"  >output</text>
<text x="168" y="3650" class="a"  >lines.</text>
<text x="48" y="3700" class="a"  >The</text>
<text x="96" y="3700" class="a"  >exception</text>
<text x="216" y="3700" class="a"  >is</text>
<text x="252" y="3700" class="a"  >stdin</text>
<text x="324" y="3700" class="a"  >input</text>
<text x="396" y="3700" class="a"  >specified</text>
<text x="516" y="3700" class="a"  >multiple</text>
<text x="624" y="3700" class="a"  >times;</text>
<text x="708" y="3700" class="a"  >in</text>
<text x="744" y="3700" class="a"  >this</text>
<text x="804" y="3700" class="a"  >case</text>
<text x="864" y="3700" class="a" >repeated</text>
<text x="48" y="3725" class="a"  >output</text>
<text x="132" y="3725" class="a"  >file</text>
<text x="192" y="3725" class="a"  >arguments</text>
<text x="312" y="3725" class="a"  >paired</text>
<text x="396" y="3725" class="a"  >with</text>
<text x="456" y="3725" class="a"  >stdin</text>
<text x="528" y="3725" class="a"  >are</text>
<text x="576" y="3725" class="a"  >processed</text>
<text x="696" y="3725" class="a"  >sequentially</text>
<text x="852" y="3725" class="a"  >but</text>
<text x="900" y="3725" class="a" >still</text>
<text x="48" y="3750" class="a"  >in</text>
<text x="84" y="3750" class="a"  >arbitrary</text>
<text x="204" y="3750" class="a"  >order;</text>
<text x="288" y="3750" class="a"  >since</text>
<text x="360" y="3750" class="a"  >input</text>
<text x="432" y="3750" class="a"  >(stdin)</text>
<text x="528" y="3750" class="a"  >is</text>
<text x="564" y="3750" class="a"  >the</text>
<text x="612" y="3750" class="a"  >same</text>
<text x="672" y="3750" class="a"  >for</text>
<text x="720" y="3750" class="a"  >each</text>
<text x="780" y="3750" class="a"  >pair,</text>
<text x="852" y="3750" class="a"  >the</text>
<text x="900" y="3750" class="a"  >same</text>
<text x="48" y="3775" class="a"  >should</text>
<text x="132" y="3775" class="a"  >be</text>
<text x="168" y="3775" class="a"  >the</text>
<text x="216" y="3775" class="a"  >output,</text>
<text x="312" y="3775" class="a"  >so</text>
<text x="348" y="3775" class="a"  >the</text>
<text x="396" y="3775" class="a"  >first</text>
<text x="468" y="3775" class="a"  >available</text>
<text x="588" y="3775" class="a"  >result</text>
<text x="672" y="3775" class="a"  >is</text>
<text x="708" y="3775" class="a"  >reused.</text>
<text x="804" y="3775" class="a"  >That</text>
<text x="864" y="3775" class="a"  >is,</text>
<text x="48" y="3800" class="a"  >output</text>
<text x="132" y="3800" class="a"  >consist</text>
<text x="228" y="3800" class="a"  >of</text>
<text x="264" y="3800" class="a"  >repeated</text>
<text x="372" y="3800" class="a"  >fragments,</text>
<text x="504" y="3800" class="a"  >the</text>
<text x="552" y="3800" class="a"  >order</text>
<text x="624" y="3800" class="a"  >of</text>
<text x="660" y="3800" class="a"  >which</text>
<text x="732" y="3800" class="a"  >cannot</text>
<text x="816" y="3800" class="a"  >be</text>
<text x="852" y="3800" class="a"  >noticed.</text>
</g>
</g>
</g>
</svg>
